<svg id="svg" version="1.1" xmlns="http://www.w3.org/2000/svg" xmlns:xlink="http://www.w3.org/1999/xlink" width="400" height="400" viewBox="0, 0, 400,400"><g id="svgg"><path id="path0" d="M191.600 35.679 C 167.398 37.567,168.264 37.467,165.085 38.741 C 162.223 39.886,160.680 40.253,154.854 41.174 C 153.453 41.395,151.023 42.208,149.454 42.979 C 147.884 43.751,145.399 44.631,143.930 44.936 C 142.462 45.241,140.243 46.064,139.000 46.765 C 137.757 47.467,135.644 48.382,134.305 48.799 C 132.966 49.216,130.954 50.182,129.835 50.947 C 128.716 51.711,126.778 52.630,125.530 52.988 C 124.281 53.346,122.661 54.074,121.930 54.605 C 121.198 55.136,119.592 56.106,118.360 56.761 C 117.127 57.416,115.587 58.399,114.936 58.947 C 114.285 59.494,112.773 60.404,111.576 60.968 C 110.379 61.532,108.642 62.580,107.715 63.297 C 106.788 64.013,104.486 65.680,102.600 67.000 C 95.647 71.865,85.869 80.672,78.800 88.437 C 77.590 89.766,75.790 91.713,74.800 92.763 C 72.739 94.950,70.147 98.165,68.283 100.846 C 66.221 103.814,64.691 105.929,63.308 107.723 C 62.598 108.646,61.581 110.251,61.048 111.292 C 60.516 112.332,59.456 114.042,58.693 115.092 C 57.930 116.141,56.921 117.810,56.451 118.800 C 55.982 119.790,55.163 121.189,54.632 121.909 C 54.101 122.629,53.307 124.285,52.867 125.589 C 52.426 126.893,51.531 128.737,50.878 129.687 C 50.224 130.637,49.321 132.609,48.869 134.069 C 48.418 135.530,47.473 137.745,46.769 138.992 C 46.066 140.240,45.241 142.462,44.936 143.930 C 44.631 145.399,43.744 147.898,42.964 149.485 C 41.938 151.571,41.383 153.450,40.960 156.265 C 40.218 161.206,40.120 161.593,38.711 165.136 C 36.554 170.563,34.855 196.004,35.769 209.200 C 37.291 231.192,37.343 231.594,39.321 236.800 C 39.865 238.230,40.598 241.362,40.950 243.760 C 41.438 247.081,41.879 248.629,42.799 250.260 C 43.464 251.438,44.371 253.976,44.816 255.901 C 45.273 257.878,46.133 260.226,46.795 261.299 C 47.439 262.343,48.328 264.413,48.772 265.899 C 49.215 267.384,50.209 269.578,50.981 270.774 C 51.753 271.970,52.755 274.064,53.209 275.428 C 53.663 276.791,54.387 278.226,54.818 278.616 C 55.248 279.006,56.075 280.332,56.654 281.562 C 57.233 282.793,58.226 284.461,58.862 285.268 C 59.497 286.076,60.375 287.546,60.813 288.535 C 61.250 289.525,62.244 291.095,63.021 292.026 C 63.799 292.956,64.633 294.096,64.876 294.558 C 65.118 295.021,65.978 296.210,66.786 297.200 C 67.593 298.190,68.641 299.642,69.114 300.426 C 69.587 301.211,70.366 302.201,70.844 302.626 C 71.323 303.052,72.047 303.940,72.454 304.600 C 74.520 307.955,91.298 324.691,95.900 327.987 C 96.835 328.657,97.600 329.355,97.600 329.539 C 97.600 329.723,98.505 330.366,99.612 330.968 C 100.719 331.570,102.443 332.772,103.443 333.637 C 104.443 334.503,105.743 335.460,106.332 335.765 C 106.920 336.069,107.761 336.721,108.201 337.214 C 108.640 337.706,110.147 338.627,111.549 339.260 C 112.951 339.893,114.751 340.924,115.549 341.552 C 116.347 342.180,117.810 343.102,118.800 343.601 C 119.790 344.101,121.103 344.930,121.718 345.444 C 122.333 345.958,124.015 346.743,125.456 347.188 C 126.896 347.633,129.093 348.623,130.337 349.389 C 131.582 350.155,133.598 351.123,134.818 351.541 C 136.037 351.959,138.017 352.843,139.218 353.507 C 140.418 354.171,142.750 355.007,144.400 355.365 C 146.050 355.723,148.132 356.433,149.027 356.943 C 151.432 358.314,152.886 358.739,157.547 359.431 C 159.863 359.775,162.757 360.476,163.979 360.988 C 168.147 362.737,167.333 362.633,190.557 364.406 C 197.110 364.907,202.914 364.906,209.443 364.403 C 212.279 364.185,218.290 363.727,222.800 363.385 C 232.036 362.686,231.929 362.704,235.900 361.126 C 237.606 360.448,240.570 359.725,243.100 359.370 C 246.394 358.907,248.018 358.452,250.043 357.423 C 251.497 356.684,254.107 355.775,255.843 355.403 C 257.592 355.029,259.859 354.208,260.926 353.564 C 261.985 352.924,264.208 351.958,265.866 351.416 C 267.524 350.875,269.717 349.897,270.740 349.244 C 271.763 348.590,273.680 347.657,275.000 347.170 C 276.320 346.683,278.030 345.796,278.800 345.198 C 279.570 344.600,281.069 343.730,282.132 343.264 C 283.194 342.798,284.753 341.871,285.597 341.203 C 286.440 340.535,287.820 339.705,288.665 339.358 C 289.509 339.011,290.740 338.220,291.400 337.599 C 292.060 336.978,293.429 335.960,294.443 335.335 C 297.989 333.150,304.337 328.279,307.648 325.200 C 308.713 324.210,310.573 322.500,311.782 321.400 C 318.127 315.627,329.622 303.115,330.922 300.567 C 331.268 299.889,332.215 298.540,333.026 297.568 C 333.838 296.597,335.079 294.902,335.785 293.801 C 336.490 292.701,337.386 291.537,337.776 291.216 C 338.166 290.895,338.904 289.684,339.416 288.525 C 339.929 287.366,340.892 285.739,341.556 284.909 C 342.220 284.079,343.053 282.705,343.406 281.856 C 343.759 281.006,344.652 279.433,345.391 278.359 C 346.129 277.286,347.047 275.461,347.431 274.304 C 347.814 273.147,348.699 271.369,349.396 270.354 C 350.094 269.338,350.982 267.358,351.370 265.954 C 351.757 264.549,352.589 262.588,353.217 261.596 C 354.262 259.947,355.600 255.915,355.600 254.416 C 355.600 254.077,356.308 252.360,357.174 250.600 C 358.427 248.053,358.873 246.523,359.361 243.100 C 359.721 240.569,360.451 237.606,361.134 235.900 C 362.657 232.094,362.708 231.807,363.375 223.400 C 365.099 201.687,365.097 197.709,363.359 176.600 C 362.727 168.924,362.454 167.471,360.988 163.979 C 360.476 162.757,359.775 159.863,359.431 157.547 C 358.739 152.886,358.314 151.432,356.943 149.027 C 356.433 148.132,355.722 146.050,355.364 144.400 C 355.005 142.750,354.120 140.320,353.397 139.000 C 352.674 137.680,351.810 135.678,351.478 134.551 C 350.804 132.265,349.847 130.262,348.769 128.878 C 348.374 128.371,347.663 126.790,347.188 125.365 C 346.714 123.940,345.917 122.284,345.417 121.687 C 344.917 121.089,344.010 119.610,343.401 118.400 C 342.793 117.190,341.804 115.570,341.203 114.800 C 340.603 114.030,339.717 112.500,339.235 111.400 C 338.753 110.300,337.848 108.860,337.224 108.200 C 336.600 107.540,335.802 106.429,335.451 105.731 C 335.099 105.033,334.084 103.622,333.195 102.595 C 332.306 101.568,331.216 100.015,330.771 99.144 C 330.327 98.273,329.693 97.457,329.362 97.330 C 329.031 97.203,328.328 96.447,327.799 95.650 C 325.334 91.932,307.371 73.930,304.800 72.600 C 304.167 72.273,303.386 71.630,303.066 71.173 C 302.520 70.394,301.398 69.564,294.771 65.046 C 293.325 64.060,291.885 62.942,291.571 62.562 C 291.257 62.181,290.190 61.516,289.200 61.082 C 288.210 60.649,286.563 59.686,285.540 58.942 C 284.517 58.199,282.860 57.227,281.857 56.784 C 280.855 56.341,279.513 55.539,278.874 55.001 C 278.235 54.464,276.382 53.508,274.756 52.878 C 273.130 52.247,271.094 51.248,270.231 50.657 C 269.368 50.066,267.658 49.298,266.431 48.950 C 265.204 48.602,263.097 47.710,261.749 46.967 C 260.401 46.224,257.746 45.254,255.850 44.812 C 253.953 44.369,251.438 43.464,250.260 42.799 C 248.629 41.879,247.081 41.438,243.760 40.950 C 241.362 40.598,238.230 39.865,236.800 39.321 C 232.470 37.676,230.187 37.295,220.600 36.619 C 215.540 36.262,209.299 35.797,206.731 35.585 C 201.420 35.147,198.160 35.167,191.600 35.679 M204.776 115.603 C 208.243 115.916,209.431 116.211,211.776 117.344 C 213.329 118.094,215.500 118.919,216.600 119.178 C 217.700 119.436,219.770 120.343,221.200 121.192 C 222.630 122.042,224.749 123.012,225.908 123.349 C 227.067 123.686,228.777 124.506,229.708 125.172 C 230.639 125.837,232.465 126.747,233.768 127.193 C 235.070 127.639,236.983 128.548,238.020 129.213 C 239.056 129.878,241.034 130.865,242.415 131.406 C 243.796 131.947,245.212 132.641,245.563 132.948 C 246.452 133.728,249.167 135.032,250.600 135.368 C 251.260 135.523,252.973 136.354,254.406 137.214 C 255.840 138.075,258.044 139.133,259.304 139.567 C 260.563 140.000,262.203 140.819,262.947 141.387 C 263.691 141.954,265.448 142.800,266.850 143.267 C 268.253 143.733,270.210 144.694,271.200 145.403 C 272.190 146.111,273.911 146.989,275.024 147.353 C 276.138 147.716,278.018 148.638,279.202 149.401 C 280.386 150.164,282.288 151.059,283.428 151.391 C 284.568 151.722,286.383 152.601,287.462 153.343 C 288.541 154.085,290.408 154.981,291.612 155.335 C 292.815 155.689,294.650 156.587,295.690 157.332 C 296.729 158.076,298.619 159.075,299.890 159.552 C 303.434 160.882,307.872 165.142,308.713 168.021 C 310.129 172.866,309.811 232.557,308.354 235.289 C 303.493 244.407,289.677 245.103,284.340 236.498 C 282.760 233.951,282.429 230.010,282.414 213.589 C 282.398 196.501,282.384 196.400,279.935 196.400 C 277.791 196.400,273.851 197.611,272.199 198.777 C 271.319 199.398,269.252 200.308,267.607 200.798 C 265.961 201.288,263.891 202.181,263.007 202.782 C 262.123 203.383,259.921 204.347,258.114 204.925 C 256.306 205.503,254.106 206.498,253.224 207.136 C 252.343 207.775,250.402 208.602,248.911 208.974 C 247.405 209.350,245.311 210.252,244.200 211.003 C 243.100 211.747,241.040 212.649,239.622 213.009 C 238.204 213.368,236.312 214.188,235.418 214.830 C 234.524 215.472,232.454 216.368,230.820 216.821 C 229.185 217.274,226.847 218.249,225.624 218.988 C 224.401 219.727,222.320 220.634,221.000 221.004 C 219.680 221.374,217.504 222.289,216.164 223.037 C 209.250 226.897,189.540 226.767,183.800 222.823 C 183.140 222.369,181.109 221.541,179.288 220.983 C 177.466 220.424,175.126 219.427,174.088 218.767 C 173.049 218.108,171.210 217.288,170.000 216.945 C 168.790 216.603,166.630 215.639,165.200 214.804 C 163.770 213.968,161.673 213.072,160.539 212.812 C 159.406 212.552,157.516 211.718,156.339 210.959 C 155.163 210.200,153.480 209.394,152.600 209.167 C 149.516 208.373,148.518 207.972,147.203 207.003 C 146.474 206.465,144.690 205.637,143.239 205.164 C 141.788 204.691,139.340 203.629,137.800 202.804 C 136.260 201.979,134.100 201.091,133.000 200.830 C 131.900 200.569,130.077 199.749,128.949 199.007 C 127.822 198.265,126.112 197.456,125.149 197.210 C 122.442 196.518,121.115 195.957,119.674 194.896 C 118.944 194.358,116.883 193.469,115.094 192.920 C 113.305 192.371,111.202 191.483,110.421 190.948 C 109.639 190.413,107.470 189.511,105.600 188.944 C 103.730 188.376,101.612 187.470,100.893 186.930 C 100.175 186.391,98.812 185.606,97.864 185.187 C 94.388 183.650,91.490 179.499,91.029 175.400 C 90.178 167.827,93.987 161.512,100.651 159.450 C 101.943 159.050,103.900 158.114,105.000 157.370 C 106.100 156.626,108.077 155.648,109.394 155.197 C 110.711 154.747,112.429 153.934,113.212 153.392 C 113.995 152.849,115.737 151.973,117.083 151.446 C 118.428 150.919,120.310 149.954,121.265 149.302 C 122.219 148.650,123.990 147.801,125.200 147.414 C 126.410 147.027,128.480 146.023,129.800 145.182 C 131.120 144.341,132.740 143.526,133.400 143.370 C 134.874 143.022,137.470 141.748,138.763 140.738 C 139.293 140.324,140.660 139.714,141.801 139.382 C 142.942 139.051,144.759 138.216,145.838 137.527 C 146.917 136.839,148.872 135.852,150.182 135.335 C 151.492 134.818,153.227 133.935,154.038 133.374 C 154.849 132.812,156.865 131.847,158.517 131.231 C 160.170 130.614,162.083 129.710,162.769 129.222 C 163.455 128.734,165.114 127.904,166.456 127.378 C 167.798 126.852,169.744 125.878,170.780 125.213 C 171.817 124.548,173.730 123.639,175.032 123.193 C 176.335 122.747,178.138 121.854,179.040 121.209 C 179.943 120.564,181.923 119.691,183.440 119.269 C 184.958 118.848,187.297 117.927,188.638 117.223 C 190.587 116.200,191.793 115.879,194.638 115.627 C 199.650 115.183,200.103 115.182,204.776 115.603 M140.846 227.447 C 142.031 227.797,143.990 228.679,145.200 229.407 C 146.410 230.136,148.480 231.034,149.800 231.405 C 151.120 231.775,153.190 232.675,154.400 233.405 C 155.610 234.134,157.680 235.034,159.000 235.405 C 160.320 235.775,162.390 236.675,163.600 237.405 C 164.810 238.134,166.880 239.034,168.200 239.405 C 169.520 239.775,171.590 240.680,172.800 241.416 C 174.010 242.152,176.130 243.041,177.512 243.391 C 178.893 243.741,181.143 244.641,182.512 245.390 C 188.709 248.783,211.660 248.800,217.841 245.416 C 219.184 244.681,221.613 243.703,223.239 243.243 C 224.864 242.783,226.646 242.073,227.197 241.665 C 228.755 240.514,230.422 239.760,232.583 239.232 C 233.673 238.965,235.582 238.119,236.824 237.353 C 238.067 236.586,240.007 235.715,241.136 235.417 C 242.264 235.119,244.375 234.212,245.826 233.400 C 247.276 232.589,249.614 231.596,251.020 231.194 C 252.427 230.792,254.618 229.828,255.889 229.052 C 260.509 226.231,266.438 225.707,267.780 228.000 C 269.849 231.534,269.007 252.308,266.654 255.780 C 265.901 256.891,265.005 258.358,264.663 259.041 C 264.321 259.723,263.627 260.553,263.120 260.886 C 262.614 261.218,261.458 262.190,260.550 263.045 C 257.220 266.184,254.943 267.916,252.576 269.111 C 251.243 269.784,249.893 270.649,249.576 271.032 C 249.259 271.416,248.010 272.167,246.800 272.703 C 245.590 273.238,243.589 274.300,242.353 275.062 C 241.117 275.825,239.047 276.724,237.753 277.062 C 236.459 277.399,234.320 278.271,233.000 278.999 C 231.211 279.985,229.530 280.498,226.400 281.011 C 224.090 281.390,220.760 282.231,219.000 282.881 C 211.773 285.547,188.237 285.549,181.000 282.882 C 179.240 282.234,176.000 281.406,173.800 281.041 C 170.966 280.572,169.034 279.984,167.172 279.022 C 165.727 278.275,163.477 277.363,162.172 276.995 C 160.868 276.627,158.835 275.698,157.656 274.930 C 156.477 274.162,154.767 273.271,153.856 272.951 C 152.945 272.630,151.566 271.860,150.792 271.239 C 150.017 270.618,148.577 269.702,147.592 269.204 C 146.606 268.706,144.953 267.511,143.917 266.549 C 142.882 265.587,141.855 264.800,141.635 264.800 C 140.895 264.800,135.412 258.909,133.897 256.486 C 131.847 253.206,131.600 251.431,131.600 239.971 C 131.600 225.629,132.153 224.880,140.846 227.447 " stroke="none" fill="#f9fafb" fill-rule="evenodd"></path><path id="path1" d="M186.000 31.603 C 182.662 31.804,180.193 32.230,177.000 33.153 C 174.024 34.013,171.034 34.552,167.762 34.818 C 162.351 35.258,158.888 36.033,156.932 37.242 C 155.939 37.856,148.610 39.552,146.769 39.595 C 146.641 39.598,145.682 40.166,144.638 40.858 C 143.463 41.636,141.491 42.404,139.469 42.871 C 137.528 43.320,135.306 44.171,134.000 44.969 C 132.790 45.707,130.900 46.613,129.800 46.981 C 128.700 47.349,126.900 48.252,125.800 48.987 C 124.700 49.722,122.810 50.636,121.600 51.019 C 120.390 51.402,118.770 52.206,118.000 52.806 C 117.230 53.406,115.520 54.442,114.200 55.108 C 112.880 55.775,111.369 56.783,110.841 57.348 C 110.314 57.914,109.234 58.583,108.441 58.834 C 107.649 59.086,106.010 60.048,104.800 60.971 C 103.590 61.895,101.923 63.060,101.095 63.561 C 100.267 64.062,99.406 64.815,99.182 65.234 C 98.957 65.654,98.087 66.348,97.248 66.776 C 96.409 67.204,95.020 68.185,94.161 68.956 C 89.960 72.731,83.629 78.353,82.206 79.574 C 81.329 80.326,79.979 81.694,79.206 82.615 C 78.433 83.535,76.180 86.100,74.200 88.314 C 68.792 94.361,67.386 96.072,66.647 97.504 C 66.277 98.222,65.609 99.032,65.163 99.304 C 64.716 99.577,63.740 100.799,62.995 102.021 C 62.249 103.242,61.252 104.591,60.778 105.020 C 60.305 105.448,59.424 106.878,58.820 108.199 C 58.215 109.520,57.313 110.960,56.814 111.400 C 56.315 111.840,55.481 113.160,54.961 114.333 C 54.440 115.506,53.497 117.126,52.865 117.933 C 52.232 118.740,51.412 120.322,51.042 121.449 C 50.672 122.576,49.841 124.196,49.196 125.049 C 48.551 125.902,47.632 127.759,47.153 129.176 C 46.675 130.593,45.683 132.750,44.949 133.969 C 44.173 135.256,43.337 137.448,42.955 139.193 C 42.571 140.948,41.742 143.116,40.964 144.400 C 39.921 146.122,39.460 147.580,38.843 151.108 C 38.386 153.722,37.714 156.169,37.242 156.931 C 36.037 158.882,35.275 162.279,34.797 167.840 C 34.517 171.085,33.954 174.224,33.172 176.902 C 30.553 185.864,30.422 214.629,32.964 222.600 C 33.981 225.791,34.398 228.248,35.201 235.777 C 35.526 238.828,35.942 240.458,36.987 242.777 C 37.824 244.633,38.575 247.202,38.933 249.433 C 39.269 251.526,39.915 253.796,40.458 254.786 C 40.976 255.731,41.622 256.904,41.893 257.392 C 42.164 257.879,42.661 259.587,42.997 261.186 C 43.372 262.971,44.144 264.964,44.995 266.347 C 45.758 267.586,46.722 269.636,47.138 270.902 C 47.554 272.168,48.367 273.886,48.944 274.720 C 49.522 275.554,50.435 277.359,50.973 278.731 C 51.511 280.103,52.429 281.795,53.015 282.490 C 53.600 283.186,54.485 284.665,54.981 285.777 C 55.478 286.890,56.295 288.160,56.797 288.600 C 57.299 289.040,58.199 290.484,58.797 291.809 C 59.396 293.134,60.631 295.080,61.543 296.134 C 62.454 297.187,63.200 298.216,63.200 298.420 C 63.200 298.624,64.100 299.785,65.200 301.000 C 66.300 302.215,67.200 303.381,67.200 303.591 C 67.200 303.958,68.194 305.159,73.138 310.764 C 80.313 318.897,80.610 319.194,89.400 327.026 C 94.384 331.466,96.008 332.766,97.397 333.425 C 98.184 333.799,99.009 334.443,99.231 334.858 C 99.453 335.273,100.392 336.080,101.317 336.653 C 102.243 337.226,103.540 338.204,104.200 338.826 C 104.860 339.448,106.480 340.445,107.800 341.042 C 109.120 341.639,110.793 342.640,111.517 343.266 C 112.242 343.893,113.862 344.945,115.117 345.604 C 116.373 346.262,117.850 347.161,118.400 347.602 C 118.950 348.042,120.614 348.842,122.098 349.379 C 123.581 349.916,125.398 350.816,126.136 351.378 C 126.873 351.940,128.539 352.763,129.838 353.207 C 131.137 353.651,132.650 354.343,133.200 354.745 C 135.025 356.079,136.583 356.717,139.205 357.204 C 140.729 357.487,142.708 358.229,144.000 359.003 C 146.438 360.462,148.223 361.015,151.800 361.415 C 153.120 361.563,155.550 362.277,157.200 363.001 C 161.229 364.769,160.993 364.716,167.806 365.369 C 171.939 365.764,174.794 366.270,177.000 366.997 C 185.150 369.683,215.331 369.695,223.169 367.016 C 225.178 366.329,228.074 365.807,232.127 365.400 C 238.869 364.724,240.536 364.355,243.247 362.937 C 244.342 362.365,246.700 361.696,248.834 361.352 C 252.757 360.721,254.549 360.118,256.380 358.814 C 257.003 358.370,258.752 357.747,260.266 357.428 C 263.698 356.706,264.840 356.275,266.715 354.994 C 267.532 354.436,269.338 353.625,270.729 353.194 C 272.120 352.762,274.016 351.864,274.942 351.199 C 275.868 350.533,277.598 349.620,278.787 349.168 C 279.975 348.717,281.479 347.900,282.130 347.352 C 282.780 346.805,284.412 345.854,285.756 345.239 C 287.100 344.624,288.560 343.713,289.000 343.214 C 289.440 342.715,290.700 341.905,291.800 341.414 C 292.900 340.922,294.597 339.851,295.572 339.032 C 296.547 338.213,298.004 337.206,298.811 336.794 C 299.618 336.383,300.577 335.589,300.943 335.031 C 301.308 334.473,302.191 333.719,302.904 333.355 C 303.617 332.991,304.948 332.042,305.861 331.246 C 306.775 330.451,309.013 328.540,310.835 327.000 C 316.435 322.266,318.317 320.419,323.957 314.125 C 331.233 306.005,332.569 304.415,333.305 303.000 C 333.648 302.340,334.501 301.260,335.200 300.600 C 335.899 299.940,336.714 298.935,337.011 298.367 C 337.308 297.799,338.213 296.542,339.022 295.574 C 339.831 294.606,340.896 292.910,341.389 291.807 C 341.881 290.703,342.695 289.440,343.197 289.000 C 343.699 288.560,344.598 287.120,345.194 285.800 C 345.791 284.480,346.762 282.828,347.352 282.128 C 347.941 281.429,348.778 279.826,349.212 278.566 C 349.645 277.307,350.476 275.651,351.059 274.887 C 351.642 274.122,352.622 272.150,353.236 270.504 C 353.850 268.858,354.785 266.857,355.314 266.056 C 356.391 264.424,356.938 262.860,357.597 259.524 C 357.844 258.273,358.401 256.798,358.834 256.248 C 360.081 254.662,360.714 252.799,361.352 248.834 C 361.696 246.700,362.365 244.342,362.937 243.247 C 364.355 240.536,364.724 238.869,365.400 232.127 C 365.805 228.091,366.331 225.170,367.012 223.169 C 369.695 215.295,369.676 185.237,366.984 176.989 C 366.292 174.871,365.773 171.890,365.379 167.773 C 364.793 161.658,364.385 159.907,362.844 156.886 C 362.385 155.987,361.733 153.533,361.395 151.433 C 360.664 146.891,360.638 146.810,358.978 144.000 C 358.192 142.670,357.486 140.732,357.193 139.099 C 356.872 137.307,356.201 135.556,355.198 133.893 C 354.367 132.515,353.399 130.420,353.048 129.238 C 352.697 128.056,351.952 126.488,351.392 125.754 C 350.832 125.020,349.851 123.133,349.211 121.561 C 348.571 119.989,347.692 118.319,347.257 117.851 C 346.822 117.383,345.880 115.767,345.164 114.261 C 344.448 112.754,343.613 111.426,343.310 111.310 C 343.006 111.193,342.067 109.726,341.223 108.049 C 340.379 106.372,339.290 104.640,338.802 104.200 C 338.314 103.760,337.591 102.770,337.194 102.000 C 336.798 101.230,335.901 100.060,335.201 99.400 C 334.501 98.740,333.648 97.660,333.306 97.000 C 331.688 93.883,320.460 81.750,312.946 75.000 C 306.952 69.615,303.538 66.800,303.002 66.800 C 302.757 66.800,301.937 66.155,301.178 65.366 C 300.420 64.577,299.294 63.667,298.676 63.343 C 298.058 63.020,296.867 62.136,296.029 61.379 C 295.192 60.622,293.537 59.573,292.353 59.048 C 291.169 58.523,289.840 57.693,289.400 57.203 C 288.960 56.713,287.340 55.682,285.800 54.913 C 284.260 54.144,282.628 53.173,282.173 52.756 C 281.718 52.339,280.245 51.566,278.898 51.039 C 277.552 50.511,275.815 49.594,275.038 49.001 C 274.260 48.409,272.494 47.575,271.112 47.149 C 269.731 46.722,267.568 45.740,266.307 44.967 C 264.892 44.098,262.913 43.330,261.136 42.960 C 259.533 42.626,257.141 41.735,255.737 40.950 C 253.860 39.900,252.267 39.388,249.508 38.945 C 247.275 38.587,244.606 37.821,242.800 37.020 C 239.346 35.488,238.724 35.358,232.094 34.788 C 228.731 34.499,225.963 33.985,223.294 33.156 C 217.541 31.368,201.170 30.686,186.000 31.603 M210.415 33.395 C 214.257 33.723,218.660 34.255,220.200 34.578 C 221.740 34.902,225.696 35.448,228.990 35.794 C 233.675 36.285,235.863 36.726,239.033 37.821 C 241.263 38.591,244.687 39.497,246.643 39.835 C 248.820 40.211,251.519 41.044,253.600 41.983 C 255.470 42.826,257.990 43.735,259.200 44.002 C 260.410 44.269,262.386 45.032,263.591 45.698 C 264.796 46.365,267.040 47.337,268.578 47.860 C 270.115 48.383,272.017 49.258,272.805 49.803 C 273.592 50.349,275.359 51.235,276.731 51.773 C 278.103 52.311,279.795 53.229,280.490 53.815 C 281.186 54.400,282.675 55.286,283.801 55.783 C 284.926 56.281,286.669 57.298,287.674 58.044 C 288.679 58.790,290.379 59.902,291.451 60.516 C 292.523 61.130,294.691 62.570,296.269 63.716 C 297.847 64.862,299.887 66.340,300.804 67.000 C 302.446 68.183,304.900 70.206,309.184 73.911 C 311.922 76.279,323.957 88.315,326.498 91.226 C 330.539 95.856,332.400 98.138,332.400 98.461 C 332.400 98.646,333.054 99.522,333.854 100.407 C 334.654 101.293,335.869 102.891,336.554 103.958 C 337.239 105.026,338.340 106.744,339.000 107.777 C 339.660 108.810,340.775 110.497,341.478 111.527 C 342.181 112.557,343.470 114.760,344.343 116.422 C 345.216 118.085,346.206 119.673,346.542 119.952 C 346.878 120.230,347.639 121.750,348.235 123.329 C 348.830 124.908,349.826 126.903,350.447 127.763 C 351.068 128.623,351.970 130.513,352.451 131.963 C 352.932 133.413,353.740 135.261,354.247 136.068 C 354.755 136.876,355.636 139.195,356.206 141.221 C 356.776 143.248,357.780 145.971,358.437 147.273 C 359.170 148.726,359.920 151.215,360.378 153.720 C 360.788 155.964,361.656 159.240,362.306 161.000 C 363.673 164.699,363.827 165.461,364.400 171.400 C 364.633 173.820,365.173 177.780,365.599 180.200 C 367.800 192.693,367.735 207.622,365.419 221.400 C 364.901 224.480,364.354 228.574,364.203 230.498 C 363.907 234.265,363.372 236.619,362.075 239.848 C 361.622 240.975,360.886 243.831,360.437 246.196 C 359.906 249.000,359.138 251.487,358.229 253.347 C 357.463 254.916,356.556 257.434,356.214 258.942 C 355.872 260.450,354.984 262.790,354.241 264.142 C 353.498 265.494,352.592 267.527,352.226 268.660 C 351.861 269.793,351.045 271.503,350.412 272.460 C 349.779 273.417,348.860 275.280,348.371 276.600 C 347.882 277.920,347.039 279.531,346.499 280.181 C 345.958 280.831,345.022 282.380,344.420 283.624 C 343.817 284.868,342.666 286.747,341.862 287.800 C 341.058 288.853,340.400 289.945,340.400 290.227 C 340.400 290.508,339.750 291.590,338.956 292.631 C 338.161 293.672,336.897 295.440,336.145 296.562 C 329.464 306.533,316.149 320.640,304.294 330.308 C 303.142 331.247,301.480 332.617,300.600 333.354 C 299.720 334.090,297.714 335.513,296.142 336.517 C 294.570 337.520,293.162 338.538,293.013 338.778 C 292.865 339.019,291.811 339.686,290.672 340.261 C 289.532 340.837,288.060 341.762,287.400 342.317 C 286.740 342.872,285.218 343.762,284.018 344.294 C 282.818 344.827,281.170 345.790,280.354 346.436 C 279.539 347.082,278.091 347.883,277.136 348.217 C 276.181 348.551,274.410 349.425,273.200 350.159 C 271.990 350.893,270.010 351.809,268.800 352.192 C 267.590 352.576,265.517 353.486,264.192 354.213 C 262.868 354.941,260.294 355.916,258.472 356.382 C 256.650 356.847,254.134 357.763,252.880 358.418 C 251.422 359.180,249.016 359.908,246.210 360.438 C 243.795 360.894,240.812 361.676,239.581 362.177 C 236.529 363.417,234.195 363.901,228.852 364.404 C 226.350 364.639,222.930 365.101,221.252 365.431 C 209.778 367.681,192.492 367.751,180.200 365.596 C 177.780 365.171,173.820 364.633,171.400 364.400 C 165.461 363.827,164.699 363.673,161.000 362.306 C 159.240 361.656,155.964 360.788,153.720 360.378 C 151.215 359.920,148.726 359.170,147.273 358.437 C 145.971 357.780,143.227 356.770,141.176 356.193 C 139.124 355.616,136.973 354.808,136.396 354.397 C 135.819 353.986,133.944 353.093,132.229 352.412 C 130.514 351.730,128.546 350.752,127.856 350.237 C 127.165 349.722,125.422 348.916,123.982 348.445 C 122.543 347.975,120.409 346.872,119.242 345.995 C 118.075 345.118,116.897 344.400,116.625 344.400 C 116.353 344.400,115.156 343.705,113.965 342.855 C 112.774 342.005,110.990 340.900,110.000 340.400 C 108.231 339.506,104.700 337.067,101.449 334.495 C 100.542 333.777,99.276 332.877,98.636 332.495 C 95.255 330.476,82.666 318.654,75.533 310.800 C 69.969 304.674,68.940 303.470,68.149 302.159 C 67.737 301.477,66.803 300.217,66.073 299.359 C 64.091 297.029,60.357 291.578,59.742 290.115 C 59.445 289.408,58.660 288.213,57.999 287.459 C 57.337 286.706,56.364 285.114,55.837 283.922 C 55.310 282.730,54.421 281.211,53.862 280.546 C 53.303 279.882,52.380 278.103,51.812 276.593 C 51.243 275.083,50.321 273.248,49.763 272.515 C 49.204 271.783,48.333 269.968,47.828 268.483 C 47.323 266.997,46.367 264.796,45.704 263.591 C 45.041 262.386,44.196 260.154,43.827 258.630 C 43.458 257.107,42.543 254.587,41.794 253.030 C 40.947 251.271,40.203 248.854,39.826 246.643 C 39.493 244.687,38.591 241.263,37.821 239.033 C 36.727 235.865,36.284 233.673,35.793 228.990 C 35.447 225.696,34.905 221.740,34.588 220.200 C 32.486 209.984,32.412 191.604,34.431 181.010 C 34.849 178.815,35.468 174.373,35.807 171.137 C 36.411 165.355,36.692 164.076,38.359 159.519 C 38.818 158.265,39.475 155.565,39.819 153.519 C 40.234 151.050,40.920 148.822,41.863 146.888 C 42.643 145.286,43.628 142.587,44.053 140.889 C 44.477 139.192,45.247 137.164,45.764 136.382 C 46.281 135.601,47.186 133.620,47.774 131.981 C 48.363 130.341,49.275 128.370,49.802 127.600 C 50.329 126.830,51.298 124.873,51.956 123.251 C 52.614 121.629,53.504 119.919,53.933 119.451 C 54.362 118.983,55.292 117.430,55.999 116.000 C 56.706 114.570,57.706 112.950,58.221 112.400 C 58.736 111.850,59.434 110.739,59.771 109.931 C 60.346 108.554,62.553 105.356,65.796 101.200 C 66.568 100.210,67.743 98.680,68.406 97.800 C 73.292 91.314,80.928 83.104,87.800 76.949 C 97.152 68.572,96.973 68.722,101.590 65.400 C 102.507 64.740,104.429 63.342,105.860 62.292 C 107.292 61.243,109.124 60.110,109.931 59.774 C 110.739 59.439,112.038 58.653,112.818 58.029 C 113.597 57.405,115.307 56.327,116.618 55.632 C 117.928 54.938,119.619 53.922,120.375 53.374 C 121.131 52.827,122.692 52.105,123.843 51.770 C 124.995 51.435,126.716 50.633,127.668 49.987 C 128.621 49.341,130.660 48.329,132.200 47.739 C 133.740 47.148,135.631 46.251,136.402 45.744 C 137.173 45.238,139.192 44.477,140.889 44.053 C 142.587 43.628,145.286 42.643,146.888 41.863 C 148.822 40.920,151.050 40.234,153.519 39.819 C 155.565 39.475,158.265 38.818,159.519 38.359 C 164.086 36.689,165.361 36.411,171.306 35.789 C 174.634 35.441,178.627 34.883,180.179 34.550 C 187.518 32.974,199.920 32.501,210.415 33.395 M195.000 117.450 C 194.560 117.560,192.580 118.169,190.600 118.804 C 188.620 119.438,186.190 120.158,185.200 120.404 C 184.210 120.650,182.400 121.460,181.178 122.202 C 179.955 122.945,177.957 123.927,176.736 124.384 C 175.515 124.840,173.725 125.737,172.758 126.377 C 171.791 127.016,169.920 127.936,168.600 128.420 C 167.280 128.905,165.611 129.740,164.892 130.277 C 164.172 130.814,162.282 131.695,160.692 132.234 C 159.101 132.774,157.080 133.726,156.200 134.350 C 155.320 134.974,153.653 135.796,152.496 136.176 C 151.339 136.556,149.459 137.509,148.318 138.294 C 147.177 139.078,145.236 140.026,144.003 140.399 C 142.770 140.772,140.972 141.650,140.007 142.349 C 139.041 143.049,137.329 143.889,136.203 144.216 C 135.076 144.544,133.187 145.436,132.003 146.198 C 130.820 146.960,128.742 147.953,127.387 148.404 C 126.031 148.856,124.335 149.658,123.617 150.187 C 122.899 150.717,121.135 151.621,119.695 152.198 C 118.256 152.774,116.341 153.749,115.439 154.364 C 114.538 154.979,112.810 155.802,111.600 156.193 C 110.390 156.584,108.344 157.600,107.054 158.452 C 105.764 159.303,104.414 160.002,104.054 160.004 C 102.621 160.012,99.256 162.024,96.640 164.436 C 87.730 172.651,93.416 184.236,108.182 187.954 C 109.241 188.221,111.389 189.136,112.954 189.988 C 114.519 190.840,116.610 191.747,117.600 192.004 C 118.590 192.261,120.660 193.155,122.200 193.992 C 123.740 194.828,125.994 195.795,127.208 196.141 C 128.422 196.486,130.222 197.300,131.208 197.949 C 132.194 198.598,134.080 199.435,135.400 199.808 C 136.720 200.182,139.060 201.166,140.600 201.996 C 142.140 202.826,144.390 203.824,145.600 204.215 C 146.810 204.607,148.436 205.346,149.214 205.860 C 149.992 206.373,152.170 207.314,154.053 207.950 C 155.937 208.587,158.181 209.572,159.039 210.138 C 159.898 210.705,161.825 211.546,163.322 212.007 C 164.820 212.469,166.872 213.371,167.884 214.013 C 168.896 214.654,170.731 215.471,171.962 215.828 C 173.193 216.185,175.315 217.099,176.677 217.860 C 178.040 218.621,180.297 219.570,181.693 219.969 C 183.090 220.369,185.309 221.256,186.625 221.941 C 192.981 225.249,206.634 225.194,214.000 221.831 C 216.090 220.877,218.658 219.870,219.707 219.594 C 220.755 219.318,222.416 218.583,223.398 217.960 C 224.380 217.337,226.492 216.437,228.092 215.959 C 229.691 215.481,231.990 214.500,233.200 213.779 C 234.410 213.058,236.480 212.166,237.800 211.795 C 239.120 211.425,241.190 210.525,242.400 209.795 C 243.610 209.066,245.680 208.169,247.000 207.802 C 248.320 207.435,250.255 206.591,251.301 205.925 C 252.346 205.260,254.323 204.366,255.695 203.940 C 257.066 203.513,259.271 202.560,260.594 201.821 C 261.917 201.083,263.810 200.265,264.800 200.004 C 265.790 199.743,267.860 198.847,269.400 198.013 C 270.940 197.180,273.447 196.103,274.972 195.620 C 276.496 195.138,278.424 194.396,279.256 193.972 C 283.788 191.659,283.758 191.536,284.033 213.541 C 284.298 234.724,284.197 234.032,287.519 237.319 C 292.473 242.223,300.279 241.976,304.767 236.774 C 307.977 233.054,307.800 235.182,307.800 200.368 L 307.800 169.737 306.589 167.778 C 304.967 165.155,300.467 161.431,297.651 160.383 C 296.413 159.922,294.555 159.005,293.522 158.345 C 292.489 157.685,290.434 156.706,288.956 156.170 C 287.478 155.634,285.665 154.734,284.926 154.171 C 284.188 153.608,282.331 152.721,280.800 152.200 C 279.269 151.679,277.428 150.805,276.708 150.257 C 275.989 149.709,274.320 148.861,273.000 148.372 C 271.680 147.882,269.852 146.972,268.939 146.349 C 268.025 145.725,266.084 144.782,264.624 144.252 C 263.165 143.722,261.300 142.824,260.480 142.255 C 259.659 141.687,257.911 140.853,256.594 140.403 C 255.277 139.952,253.300 138.972,252.200 138.225 C 251.100 137.477,249.390 136.658,248.400 136.403 C 247.410 136.148,245.430 135.245,244.000 134.395 C 242.570 133.545,240.437 132.474,239.261 132.015 C 238.084 131.556,236.554 130.758,235.861 130.241 C 235.167 129.724,233.530 128.908,232.222 128.427 C 230.915 127.946,228.845 126.951,227.622 126.215 C 226.400 125.479,224.410 124.563,223.200 124.180 C 221.990 123.796,220.255 122.974,219.343 122.352 C 218.432 121.730,216.289 120.838,214.581 120.369 C 212.873 119.901,210.289 119.057,208.838 118.494 C 206.245 117.488,197.481 116.826,195.000 117.450 M208.715 120.545 C 214.038 121.641,215.539 122.106,216.915 123.085 C 217.842 123.744,219.860 124.680,221.400 125.165 C 222.940 125.650,224.961 126.585,225.891 127.242 C 226.821 127.899,228.621 128.793,229.891 129.228 C 231.161 129.662,232.961 130.562,233.891 131.228 C 234.821 131.893,236.612 132.791,237.870 133.224 C 239.128 133.657,241.067 134.623,242.179 135.371 C 243.290 136.120,245.201 137.012,246.426 137.355 C 247.650 137.698,249.430 138.543,250.381 139.232 C 251.332 139.921,253.357 140.909,254.879 141.427 C 256.401 141.945,258.170 142.809,258.810 143.347 C 259.449 143.885,261.405 144.802,263.156 145.385 C 264.907 145.969,266.566 146.719,266.843 147.052 C 267.462 147.798,269.665 148.925,271.800 149.590 C 272.680 149.863,274.093 150.631,274.940 151.294 C 275.787 151.958,277.677 152.860,279.140 153.298 C 280.603 153.737,282.480 154.633,283.311 155.290 C 284.142 155.947,286.032 156.843,287.511 157.281 C 288.990 157.719,290.669 158.518,291.241 159.057 C 291.814 159.596,293.658 160.550,295.339 161.177 C 299.360 162.677,304.186 166.596,305.929 169.777 C 306.752 171.277,307.182 226.831,306.401 230.597 C 306.008 232.488,304.704 234.562,302.086 237.460 C 299.558 240.259,291.691 239.598,288.715 236.338 C 285.321 232.619,285.494 233.818,285.233 212.310 L 285.000 193.221 284.088 192.310 C 282.662 190.887,279.773 191.133,276.869 192.925 C 275.620 193.696,273.438 194.627,272.021 194.995 C 270.604 195.362,268.683 196.208,267.754 196.876 C 266.824 197.544,264.838 198.430,263.339 198.845 C 261.841 199.261,259.621 200.214,258.407 200.962 C 257.193 201.711,255.167 202.594,253.904 202.923 C 252.641 203.253,251.021 203.896,250.304 204.352 C 248.178 205.705,245.926 206.712,243.848 207.238 C 242.775 207.510,241.065 208.297,240.048 208.986 C 239.032 209.676,237.040 210.556,235.623 210.943 C 234.205 211.330,232.045 212.257,230.823 213.004 C 229.600 213.751,227.374 214.666,225.875 215.036 C 224.376 215.407,222.526 216.133,221.764 216.650 C 219.649 218.086,218.353 218.667,216.600 218.967 C 215.720 219.117,213.470 219.996,211.601 220.920 L 208.202 222.600 201.329 222.739 C 193.575 222.896,191.380 222.569,188.551 220.834 C 187.478 220.177,185.376 219.360,183.880 219.020 C 182.282 218.657,180.064 217.741,178.505 216.801 C 177.045 215.920,175.620 215.200,175.339 215.200 C 174.225 215.200,170.914 213.841,169.400 212.763 C 168.520 212.136,166.630 211.335,165.200 210.983 C 163.770 210.630,161.700 209.736,160.600 208.996 C 159.500 208.257,157.381 207.347,155.891 206.975 C 154.304 206.578,152.584 205.823,151.737 205.150 C 150.942 204.518,149.011 203.629,147.446 203.173 C 145.881 202.717,143.700 201.744,142.600 201.011 C 141.487 200.268,139.182 199.294,137.400 198.813 C 135.640 198.338,133.840 197.622,133.400 197.221 C 132.199 196.129,130.445 195.349,128.043 194.841 C 126.783 194.574,125.118 193.823,124.043 193.037 C 122.990 192.267,121.109 191.412,119.655 191.042 C 118.255 190.685,116.072 189.752,114.802 188.969 C 113.533 188.186,111.186 187.208,109.587 186.797 C 107.987 186.385,105.941 185.520,105.039 184.874 C 104.138 184.228,102.340 183.367,101.045 182.959 C 99.332 182.421,98.405 181.850,97.645 180.864 C 97.070 180.118,96.106 178.950,95.503 178.268 C 92.231 174.569,93.972 166.982,98.573 164.885 C 99.084 164.652,100.109 163.930,100.851 163.279 C 101.617 162.607,103.369 161.746,104.904 161.285 C 106.479 160.814,108.190 159.965,108.999 159.254 C 109.764 158.583,111.157 157.838,112.095 157.598 C 114.720 156.928,115.902 156.391,117.437 155.171 C 118.213 154.554,120.013 153.661,121.437 153.188 C 122.861 152.714,124.550 151.885,125.190 151.347 C 125.830 150.809,127.599 149.945,129.121 149.427 C 130.643 148.909,132.668 147.921,133.619 147.232 C 134.570 146.543,136.350 145.698,137.574 145.354 C 138.799 145.011,140.585 144.180,141.545 143.508 C 142.505 142.835,144.643 141.781,146.297 141.164 C 147.951 140.547,149.707 139.663,150.200 139.200 C 150.693 138.737,152.425 137.858,154.048 137.247 C 155.672 136.636,157.682 135.668,158.515 135.096 C 159.349 134.523,161.239 133.654,162.715 133.163 C 164.192 132.673,166.253 131.685,167.296 130.969 C 168.339 130.253,170.139 129.353,171.296 128.969 C 172.453 128.586,174.281 127.667,175.358 126.927 C 176.434 126.188,178.116 125.381,179.096 125.134 C 180.075 124.888,181.733 124.097,182.780 123.376 C 184.908 121.913,185.898 121.597,192.200 120.376 C 194.620 119.907,196.675 119.450,196.767 119.361 C 197.327 118.819,203.120 119.393,208.715 120.545 M135.326 228.780 C 133.738 229.461,133.600 230.367,133.600 240.101 C 133.600 250.162,133.747 251.173,135.898 255.909 C 137.344 259.093,144.817 265.800,149.600 268.207 C 150.370 268.594,151.569 269.406,152.263 270.011 C 152.958 270.616,154.445 271.416,155.567 271.789 C 156.689 272.162,158.472 273.062,159.529 273.789 C 160.596 274.522,162.832 275.489,164.555 275.962 C 166.262 276.431,168.714 277.363,170.003 278.033 C 171.707 278.920,173.637 279.461,177.073 280.014 C 179.673 280.433,183.201 281.135,184.913 281.575 C 192.924 283.631,207.448 283.552,216.000 281.405 C 218.090 280.881,221.288 280.251,223.106 280.006 C 226.664 279.526,228.462 278.990,231.039 277.641 C 231.940 277.169,234.010 276.418,235.639 275.973 C 237.268 275.527,239.340 274.638,240.244 273.997 C 241.148 273.355,242.887 272.457,244.108 272.000 C 245.330 271.543,247.020 270.618,247.864 269.945 C 248.709 269.271,250.109 268.357,250.975 267.914 C 253.761 266.487,259.271 262.174,262.783 258.671 C 263.885 257.572,266.030 252.150,266.463 249.368 C 267.155 244.923,266.730 230.157,265.886 229.313 C 264.558 227.987,260.969 228.335,258.170 230.061 C 256.866 230.865,254.720 231.828,253.400 232.202 C 252.080 232.576,249.872 233.505,248.492 234.265 C 247.113 235.025,245.043 235.922,243.892 236.258 C 242.742 236.594,240.690 237.484,239.334 238.235 C 237.978 238.986,235.784 239.938,234.459 240.351 C 233.134 240.763,231.173 241.640,230.101 242.300 C 229.029 242.959,227.083 243.806,225.776 244.181 C 224.469 244.557,222.272 245.490,220.893 246.255 C 211.976 251.206,188.478 251.211,179.507 246.265 C 178.128 245.504,175.920 244.576,174.600 244.202 C 173.280 243.828,171.210 242.925,170.000 242.195 C 168.790 241.466,166.720 240.566,165.400 240.195 C 164.080 239.825,162.010 238.925,160.800 238.195 C 159.590 237.466,157.520 236.566,156.200 236.195 C 154.880 235.825,152.810 234.925,151.600 234.195 C 150.390 233.466,148.320 232.567,147.000 232.198 C 145.680 231.829,143.574 230.906,142.321 230.147 C 139.901 228.682,136.914 228.098,135.326 228.780 M140.455 231.235 C 141.514 231.915,143.420 232.738,144.690 233.063 C 145.961 233.389,148.170 234.351,149.600 235.201 C 151.030 236.051,153.360 237.042,154.778 237.404 C 156.196 237.766,158.114 238.607,159.041 239.272 C 159.968 239.938,162.012 240.828,163.584 241.249 C 165.156 241.671,167.330 242.627,168.416 243.374 C 169.502 244.121,171.338 244.932,172.495 245.178 C 173.653 245.423,175.640 246.263,176.912 247.044 C 178.541 248.045,180.195 248.647,182.512 249.082 C 184.320 249.422,187.330 250.248,189.200 250.917 C 195.445 253.152,205.460 252.965,212.400 250.484 C 213.610 250.052,216.075 249.421,217.879 249.083 C 220.241 248.640,221.680 248.108,223.027 247.182 C 224.055 246.474,226.144 245.574,227.670 245.182 C 229.196 244.790,230.839 244.182,231.322 243.831 C 231.805 243.481,232.581 242.921,233.046 242.587 C 233.511 242.253,235.203 241.616,236.805 241.172 C 238.408 240.728,240.457 239.845,241.360 239.211 C 242.262 238.577,244.287 237.683,245.860 237.224 C 247.433 236.765,249.748 235.771,251.006 235.013 C 252.263 234.256,254.270 233.418,255.465 233.151 C 256.660 232.883,258.574 232.059,259.719 231.320 C 263.900 228.619,264.386 229.548,264.394 240.265 C 264.403 252.123,263.376 256.615,260.151 258.834 C 259.188 259.496,258.400 260.203,258.400 260.404 C 258.400 260.606,257.275 261.527,255.900 262.451 C 254.525 263.376,252.783 264.665,252.029 265.316 C 251.275 265.967,250.015 266.764,249.229 267.087 C 248.443 267.410,247.330 268.117,246.757 268.658 C 246.183 269.199,244.389 270.180,242.771 270.839 C 241.152 271.497,239.245 272.481,238.532 273.025 C 237.778 273.600,235.596 274.438,233.318 275.027 C 231.163 275.585,228.752 276.488,227.959 277.034 C 226.314 278.168,225.085 278.403,213.200 279.863 C 200.751 281.391,199.680 281.409,190.400 280.237 C 185.890 279.667,180.496 279.015,178.414 278.787 C 175.297 278.446,174.191 278.128,172.154 276.989 C 170.794 276.228,168.391 275.335,166.814 275.003 C 163.689 274.346,162.654 273.913,161.335 272.713 C 160.859 272.280,159.239 271.482,157.735 270.940 C 156.231 270.398,154.323 269.414,153.496 268.755 C 152.669 268.095,151.394 267.306,150.664 267.001 C 149.934 266.696,149.086 266.144,148.780 265.776 C 148.474 265.407,146.958 264.231,145.412 263.164 C 136.707 257.153,136.289 256.193,136.082 241.762 C 135.899 228.963,136.112 228.449,140.455 231.235 " stroke="none" fill="#349cdc" fill-rule="evenodd"></path><path id="path2" d="M188.800 33.427 C 185.610 33.711,181.730 34.217,180.179 34.550 C 178.627 34.883,174.634 35.441,171.306 35.789 C 165.361 36.411,164.086 36.689,159.519 38.359 C 158.265 38.818,155.565 39.475,153.519 39.819 C 151.050 40.234,148.822 40.920,146.888 41.863 C 145.286 42.643,142.587 43.628,140.889 44.053 C 139.192 44.477,137.173 45.238,136.402 45.744 C 135.631 46.251,133.740 47.148,132.200 47.739 C 130.660 48.329,128.621 49.341,127.668 49.987 C 126.716 50.633,124.995 51.435,123.843 51.770 C 122.692 52.105,121.131 52.827,120.375 53.374 C 119.619 53.922,117.928 54.938,116.618 55.632 C 115.307 56.327,113.597 57.405,112.818 58.029 C 112.038 58.653,110.739 59.439,109.931 59.774 C 109.124 60.110,107.292 61.243,105.860 62.292 C 104.429 63.342,102.507 64.740,101.590 65.400 C 96.973 68.722,97.152 68.572,87.800 76.949 C 80.928 83.104,73.292 91.314,68.406 97.800 C 67.743 98.680,66.568 100.210,65.796 101.200 C 62.553 105.356,60.346 108.554,59.771 109.931 C 59.434 110.739,58.736 111.850,58.221 112.400 C 57.706 112.950,56.706 114.570,55.999 116.000 C 55.292 117.430,54.362 118.983,53.933 119.451 C 53.504 119.919,52.614 121.629,51.956 123.251 C 51.298 124.873,50.329 126.830,49.802 127.600 C 49.275 128.370,48.363 130.341,47.774 131.981 C 47.186 133.620,46.281 135.601,45.764 136.382 C 45.247 137.164,44.477 139.192,44.053 140.889 C 43.628 142.587,42.643 145.286,41.863 146.888 C 40.920 148.822,40.234 151.050,39.819 153.519 C 39.475 155.565,38.818 158.265,38.359 159.519 C 36.692 164.076,36.411 165.355,35.807 171.137 C 35.468 174.373,34.849 178.815,34.431 181.010 C 32.412 191.604,32.486 209.984,34.588 220.200 C 34.905 221.740,35.447 225.696,35.793 228.990 C 36.284 233.673,36.727 235.865,37.821 239.033 C 38.591 241.263,39.493 244.687,39.826 246.643 C 40.203 248.854,40.947 251.271,41.794 253.030 C 42.543 254.587,43.458 257.107,43.827 258.630 C 44.196 260.154,45.041 262.386,45.704 263.591 C 46.367 264.796,47.323 266.997,47.828 268.483 C 48.333 269.968,49.204 271.783,49.763 272.515 C 50.321 273.248,51.243 275.083,51.812 276.593 C 52.380 278.103,53.303 279.882,53.862 280.546 C 54.421 281.211,55.310 282.730,55.837 283.922 C 56.364 285.114,57.337 286.706,57.999 287.459 C 58.660 288.213,59.445 289.408,59.742 290.115 C 60.357 291.578,64.091 297.029,66.073 299.359 C 66.803 300.217,67.737 301.477,68.149 302.159 C 71.277 307.340,93.436 329.390,98.636 332.495 C 99.276 332.877,100.542 333.777,101.449 334.495 C 104.700 337.067,108.231 339.506,110.000 340.400 C 110.990 340.900,112.774 342.005,113.965 342.855 C 115.156 343.705,116.353 344.400,116.625 344.400 C 116.897 344.400,118.075 345.118,119.242 345.995 C 120.409 346.872,122.543 347.975,123.982 348.445 C 125.422 348.916,127.165 349.722,127.856 350.237 C 128.546 350.752,130.514 351.730,132.229 352.412 C 133.944 353.093,135.819 353.986,136.396 354.397 C 136.973 354.808,139.124 355.616,141.176 356.193 C 143.227 356.770,145.971 357.780,147.273 358.437 C 148.726 359.170,151.215 359.920,153.720 360.378 C 155.964 360.788,159.240 361.656,161.000 362.306 C 164.699 363.673,165.461 363.827,171.400 364.400 C 173.820 364.633,177.780 365.171,180.200 365.596 C 192.492 367.751,209.778 367.681,221.252 365.431 C 222.930 365.101,226.350 364.639,228.852 364.404 C 234.195 363.901,236.529 363.417,239.581 362.177 C 240.812 361.676,243.795 360.894,246.210 360.438 C 249.016 359.908,251.422 359.180,252.880 358.418 C 254.134 357.763,256.650 356.847,258.472 356.382 C 260.294 355.916,262.868 354.941,264.192 354.213 C 265.517 353.486,267.590 352.576,268.800 352.192 C 270.010 351.809,271.990 350.893,273.200 350.159 C 274.410 349.425,276.181 348.551,277.136 348.217 C 278.091 347.883,279.539 347.082,280.354 346.436 C 281.170 345.790,282.818 344.827,284.018 344.294 C 285.218 343.762,286.740 342.872,287.400 342.317 C 288.060 341.762,289.532 340.837,290.672 340.261 C 291.811 339.686,292.865 339.019,293.013 338.778 C 293.162 338.538,294.570 337.520,296.142 336.517 C 297.714 335.513,299.720 334.090,300.600 333.354 C 301.480 332.617,303.142 331.247,304.294 330.308 C 316.149 320.640,329.464 306.533,336.145 296.562 C 336.897 295.440,338.161 293.672,338.956 292.631 C 339.750 291.590,340.400 290.508,340.400 290.227 C 340.400 289.945,341.058 288.853,341.862 287.800 C 342.666 286.747,343.817 284.868,344.420 283.624 C 345.022 282.380,345.958 280.831,346.499 280.181 C 347.039 279.531,347.882 277.920,348.371 276.600 C 348.860 275.280,349.779 273.417,350.412 272.460 C 351.045 271.503,351.861 269.793,352.226 268.660 C 352.592 267.527,353.498 265.494,354.241 264.142 C 354.984 262.790,355.872 260.450,356.214 258.942 C 356.556 257.434,357.463 254.916,358.229 253.347 C 359.138 251.487,359.906 249.000,360.437 246.196 C 360.886 243.831,361.622 240.975,362.075 239.848 C 363.372 236.619,363.907 234.265,364.203 230.498 C 364.354 228.574,364.901 224.480,365.419 221.400 C 367.735 207.622,367.800 192.693,365.599 180.200 C 365.173 177.780,364.633 173.820,364.400 171.400 C 363.827 165.461,363.673 164.699,362.306 161.000 C 361.656 159.240,360.788 155.964,360.378 153.720 C 359.920 151.215,359.170 148.726,358.437 147.273 C 357.780 145.971,356.776 143.248,356.206 141.221 C 355.636 139.195,354.755 136.876,354.247 136.068 C 353.740 135.261,352.932 133.413,352.451 131.963 C 351.970 130.513,351.068 128.623,350.447 127.763 C 349.826 126.903,348.830 124.908,348.235 123.329 C 347.639 121.750,346.878 120.230,346.542 119.952 C 346.206 119.673,345.216 118.085,344.343 116.422 C 343.470 114.760,342.181 112.557,341.478 111.527 C 340.775 110.497,339.660 108.810,339.000 107.777 C 338.340 106.744,337.239 105.026,336.554 103.958 C 335.869 102.891,334.654 101.293,333.854 100.407 C 333.054 99.522,332.400 98.646,332.400 98.461 C 332.400 98.138,330.539 95.856,326.498 91.226 C 323.957 88.315,311.922 76.279,309.184 73.911 C 304.900 70.206,302.446 68.183,300.804 67.000 C 299.887 66.340,297.847 64.862,296.269 63.716 C 294.691 62.570,292.523 61.130,291.451 60.516 C 290.379 59.902,288.679 58.790,287.674 58.044 C 286.669 57.298,284.926 56.281,283.801 55.783 C 282.675 55.286,281.186 54.400,280.490 53.815 C 279.795 53.229,278.103 52.311,276.731 51.773 C 275.359 51.235,273.592 50.349,272.805 49.803 C 272.017 49.258,270.115 48.383,268.578 47.860 C 267.040 47.337,264.796 46.365,263.591 45.698 C 262.386 45.032,260.410 44.269,259.200 44.002 C 257.990 43.735,255.470 42.826,253.600 41.983 C 251.519 41.044,248.820 40.211,246.643 39.835 C 244.687 39.497,241.263 38.591,239.033 37.821 C 235.863 36.726,233.675 36.285,228.990 35.794 C 225.696 35.448,221.740 34.902,220.200 34.578 C 212.671 32.998,199.154 32.502,188.800 33.427 M206.731 35.585 C 209.299 35.797,215.540 36.262,220.600 36.619 C 230.187 37.295,232.470 37.676,236.800 39.321 C 238.230 39.865,241.362 40.598,243.760 40.950 C 247.081 41.438,248.629 41.879,250.260 42.799 C 251.438 43.464,253.953 44.369,255.850 44.812 C 257.746 45.254,260.401 46.224,261.749 46.967 C 263.097 47.710,265.204 48.602,266.431 48.950 C 267.658 49.298,269.368 50.066,270.231 50.657 C 271.094 51.248,273.130 52.247,274.756 52.878 C 276.382 53.508,278.235 54.464,278.874 55.001 C 279.513 55.539,280.855 56.341,281.857 56.784 C 282.860 57.227,284.517 58.199,285.540 58.942 C 286.563 59.686,288.210 60.649,289.200 61.082 C 290.190 61.516,291.257 62.181,291.571 62.562 C 291.885 62.942,293.325 64.060,294.771 65.046 C 301.398 69.564,302.520 70.394,303.066 71.173 C 303.386 71.630,304.167 72.273,304.800 72.600 C 307.371 73.930,325.334 91.932,327.799 95.650 C 328.328 96.447,329.031 97.203,329.362 97.330 C 329.693 97.457,330.327 98.273,330.771 99.144 C 331.216 100.015,332.306 101.568,333.195 102.595 C 334.084 103.622,335.099 105.033,335.451 105.731 C 335.802 106.429,336.600 107.540,337.224 108.200 C 337.848 108.860,338.753 110.300,339.235 111.400 C 339.717 112.500,340.603 114.030,341.203 114.800 C 341.804 115.570,342.793 117.190,343.401 118.400 C 344.010 119.610,344.917 121.089,345.417 121.687 C 345.917 122.284,346.714 123.940,347.188 125.365 C 347.663 126.790,348.374 128.371,348.769 128.878 C 349.847 130.262,350.804 132.265,351.478 134.551 C 351.810 135.678,352.674 137.680,353.397 139.000 C 354.120 140.320,355.005 142.750,355.364 144.400 C 355.722 146.050,356.433 148.132,356.943 149.027 C 358.314 151.432,358.739 152.886,359.431 157.547 C 359.775 159.863,360.476 162.757,360.988 163.979 C 362.761 168.202,363.247 172.139,364.441 191.900 C 365.306 206.215,363.523 229.927,361.134 235.900 C 360.451 237.606,359.721 240.569,359.361 243.100 C 358.873 246.523,358.427 248.053,357.174 250.600 C 356.308 252.360,355.600 254.077,355.600 254.416 C 355.600 255.915,354.262 259.947,353.217 261.596 C 352.589 262.588,351.757 264.549,351.370 265.954 C 350.982 267.358,350.094 269.338,349.396 270.354 C 348.699 271.369,347.814 273.147,347.431 274.304 C 347.047 275.461,346.129 277.286,345.391 278.359 C 344.652 279.433,343.759 281.006,343.406 281.856 C 343.053 282.705,342.220 284.079,341.556 284.909 C 340.892 285.739,339.929 287.366,339.416 288.525 C 338.904 289.684,338.166 290.895,337.776 291.216 C 337.386 291.537,336.490 292.701,335.785 293.801 C 335.079 294.902,333.838 296.597,333.026 297.568 C 332.215 298.540,331.268 299.889,330.922 300.567 C 329.622 303.115,318.127 315.627,311.782 321.400 C 310.573 322.500,308.713 324.210,307.648 325.200 C 304.337 328.279,297.989 333.150,294.443 335.335 C 293.429 335.960,292.060 336.978,291.400 337.599 C 290.740 338.220,289.509 339.011,288.665 339.358 C 287.820 339.705,286.440 340.535,285.597 341.203 C 284.753 341.871,283.194 342.798,282.132 343.264 C 281.069 343.730,279.570 344.600,278.800 345.198 C 278.030 345.796,276.320 346.683,275.000 347.170 C 273.680 347.657,271.763 348.590,270.740 349.244 C 269.717 349.897,267.524 350.875,265.866 351.416 C 264.208 351.958,261.985 352.924,260.926 353.564 C 259.859 354.208,257.592 355.029,255.843 355.403 C 254.107 355.775,251.497 356.684,250.043 357.423 C 248.018 358.452,246.394 358.907,243.100 359.370 C 240.570 359.725,237.606 360.448,235.900 361.126 C 231.929 362.704,232.036 362.686,222.800 363.385 C 218.290 363.727,212.279 364.185,209.443 364.403 C 202.914 364.906,197.110 364.907,190.557 364.406 C 167.333 362.633,168.147 362.737,163.979 360.988 C 162.757 360.476,159.863 359.775,157.547 359.431 C 152.886 358.739,151.432 358.314,149.027 356.943 C 148.132 356.433,146.050 355.723,144.400 355.365 C 142.750 355.007,140.418 354.171,139.218 353.507 C 138.017 352.843,136.037 351.959,134.818 351.541 C 133.598 351.123,131.582 350.155,130.337 349.389 C 129.093 348.623,126.896 347.633,125.456 347.188 C 124.015 346.743,122.333 345.958,121.718 345.444 C 121.103 344.930,119.790 344.101,118.800 343.601 C 117.810 343.102,116.347 342.180,115.549 341.552 C 114.751 340.924,112.951 339.893,111.549 339.260 C 110.147 338.627,108.640 337.706,108.201 337.214 C 107.761 336.721,106.920 336.069,106.332 335.765 C 105.743 335.460,104.443 334.503,103.443 333.637 C 102.443 332.772,100.719 331.570,99.612 330.968 C 98.505 330.366,97.600 329.723,97.600 329.539 C 97.600 329.355,96.835 328.657,95.900 327.987 C 91.298 324.691,74.520 307.955,72.454 304.600 C 72.047 303.940,71.323 303.052,70.844 302.626 C 70.366 302.201,69.587 301.211,69.114 300.426 C 68.641 299.642,67.593 298.190,66.786 297.200 C 65.978 296.210,65.118 295.021,64.876 294.558 C 64.633 294.096,63.799 292.956,63.021 292.026 C 62.244 291.095,61.250 289.525,60.813 288.535 C 60.375 287.546,59.497 286.076,58.862 285.268 C 58.226 284.461,57.233 282.793,56.654 281.562 C 56.075 280.332,55.248 279.006,54.818 278.616 C 54.387 278.226,53.663 276.791,53.209 275.428 C 52.755 274.064,51.753 271.970,50.981 270.774 C 50.209 269.578,49.215 267.384,48.772 265.899 C 48.328 264.413,47.439 262.343,46.795 261.299 C 46.133 260.226,45.273 257.878,44.816 255.901 C 44.371 253.976,43.464 251.438,42.799 250.260 C 41.879 248.629,41.438 247.081,40.950 243.760 C 40.598 241.362,39.865 238.230,39.321 236.800 C 37.343 231.594,37.291 231.192,35.769 209.200 C 34.855 196.004,36.554 170.563,38.711 165.136 C 40.120 161.593,40.218 161.206,40.960 156.265 C 41.383 153.450,41.938 151.571,42.964 149.485 C 43.744 147.898,44.631 145.399,44.936 143.930 C 45.241 142.462,46.066 140.240,46.769 138.992 C 47.473 137.745,48.418 135.530,48.869 134.069 C 49.321 132.609,50.224 130.637,50.878 129.687 C 51.531 128.737,52.426 126.893,52.867 125.589 C 53.307 124.285,54.101 122.629,54.632 121.909 C 55.163 121.189,55.982 119.790,56.451 118.800 C 56.921 117.810,57.930 116.141,58.693 115.092 C 59.456 114.042,60.516 112.332,61.048 111.292 C 61.581 110.251,62.598 108.646,63.308 107.723 C 64.691 105.929,66.221 103.814,68.283 100.846 C 70.147 98.165,72.739 94.950,74.800 92.763 C 75.790 91.713,77.590 89.766,78.800 88.437 C 85.869 80.672,95.647 71.865,102.600 67.000 C 104.486 65.680,106.788 64.013,107.715 63.297 C 108.642 62.580,110.379 61.532,111.576 60.968 C 112.773 60.404,114.285 59.494,114.936 58.947 C 115.587 58.399,117.127 57.416,118.360 56.761 C 119.592 56.106,121.198 55.136,121.930 54.605 C 122.661 54.074,124.281 53.346,125.530 52.988 C 126.778 52.630,128.716 51.711,129.835 50.947 C 130.954 50.182,132.966 49.216,134.305 48.799 C 135.644 48.382,137.757 47.467,139.000 46.765 C 140.243 46.064,142.462 45.241,143.930 44.936 C 145.399 44.631,147.884 43.751,149.454 42.979 C 151.023 42.208,153.453 41.395,154.854 41.174 C 160.680 40.253,162.223 39.886,165.085 38.741 C 168.264 37.467,167.398 37.567,191.600 35.679 C 198.160 35.167,201.420 35.147,206.731 35.585 M194.638 115.627 C 191.793 115.879,190.587 116.200,188.638 117.223 C 187.297 117.927,184.958 118.848,183.440 119.269 C 181.923 119.691,179.943 120.564,179.040 121.209 C 178.138 121.854,176.335 122.747,175.032 123.193 C 173.730 123.639,171.817 124.548,170.780 125.213 C 169.744 125.878,167.798 126.852,166.456 127.378 C 165.114 127.904,163.455 128.734,162.769 129.222 C 162.083 129.710,160.170 130.614,158.517 131.231 C 156.865 131.847,154.849 132.812,154.038 133.374 C 153.227 133.935,151.492 134.818,150.182 135.335 C 148.872 135.852,146.917 136.839,145.838 137.527 C 144.759 138.216,142.942 139.051,141.801 139.382 C 140.660 139.714,139.293 140.324,138.763 140.738 C 137.470 141.748,134.874 143.022,133.400 143.370 C 132.740 143.526,131.120 144.341,129.800 145.182 C 128.480 146.023,126.410 147.027,125.200 147.414 C 123.990 147.801,122.219 148.650,121.265 149.302 C 120.310 149.954,118.428 150.919,117.083 151.446 C 115.737 151.973,113.995 152.849,113.212 153.392 C 112.429 153.934,110.711 154.747,109.394 155.197 C 108.077 155.648,106.100 156.626,105.000 157.370 C 103.900 158.114,101.943 159.050,100.651 159.450 C 91.146 162.391,87.594 174.597,94.075 182.049 C 95.315 183.474,96.831 184.730,97.864 185.187 C 98.812 185.606,100.175 186.391,100.893 186.930 C 101.612 187.470,103.730 188.376,105.600 188.944 C 107.470 189.511,109.639 190.413,110.421 190.948 C 111.202 191.483,113.305 192.371,115.094 192.920 C 116.883 193.469,118.944 194.358,119.674 194.896 C 121.115 195.957,122.442 196.518,125.149 197.210 C 126.112 197.456,127.822 198.265,128.949 199.007 C 130.077 199.749,131.900 200.569,133.000 200.830 C 134.100 201.091,136.260 201.979,137.800 202.804 C 139.340 203.629,141.788 204.691,143.239 205.164 C 144.690 205.637,146.474 206.465,147.203 207.003 C 148.518 207.972,149.516 208.373,152.600 209.167 C 153.480 209.394,155.163 210.200,156.339 210.959 C 157.516 211.718,159.406 212.552,160.539 212.812 C 161.673 213.072,163.770 213.968,165.200 214.804 C 166.630 215.639,168.790 216.603,170.000 216.945 C 171.210 217.288,173.049 218.108,174.088 218.767 C 175.126 219.427,177.466 220.424,179.288 220.983 C 181.109 221.541,183.140 222.369,183.800 222.823 C 189.540 226.767,209.250 226.897,216.164 223.037 C 217.504 222.289,219.680 221.374,221.000 221.004 C 222.320 220.634,224.401 219.727,225.624 218.988 C 226.847 218.249,229.185 217.274,230.820 216.821 C 232.454 216.368,234.524 215.472,235.418 214.830 C 236.312 214.188,238.204 213.368,239.622 213.009 C 241.040 212.649,243.100 211.747,244.200 211.003 C 245.311 210.252,247.405 209.350,248.911 208.974 C 250.402 208.602,252.343 207.775,253.224 207.136 C 254.106 206.498,256.306 205.503,258.114 204.925 C 259.921 204.347,262.123 203.383,263.007 202.782 C 263.891 202.181,265.961 201.288,267.607 200.798 C 269.252 200.308,271.319 199.398,272.199 198.777 C 273.851 197.611,277.791 196.400,279.935 196.400 C 282.384 196.400,282.398 196.501,282.414 213.589 C 282.429 230.010,282.760 233.951,284.340 236.498 C 289.677 245.103,303.493 244.407,308.354 235.289 C 309.811 232.557,310.129 172.866,308.713 168.021 C 307.872 165.142,303.434 160.882,299.890 159.552 C 298.619 159.075,296.729 158.076,295.690 157.332 C 294.650 156.587,292.815 155.689,291.612 155.335 C 290.408 154.981,288.541 154.085,287.462 153.343 C 286.383 152.601,284.568 151.722,283.428 151.391 C 282.288 151.059,280.386 150.164,279.202 149.401 C 278.018 148.638,276.138 147.716,275.024 147.353 C 273.911 146.989,272.190 146.111,271.200 145.403 C 270.210 144.694,268.253 143.733,266.850 143.267 C 265.448 142.800,263.691 141.954,262.947 141.387 C 262.203 140.819,260.563 140.000,259.304 139.567 C 258.044 139.133,255.840 138.075,254.406 137.214 C 252.973 136.354,251.260 135.523,250.600 135.368 C 249.167 135.032,246.452 133.728,245.563 132.948 C 245.212 132.641,243.796 131.947,242.415 131.406 C 241.034 130.865,239.056 129.878,238.020 129.213 C 236.983 128.548,235.070 127.639,233.768 127.193 C 232.465 126.747,230.639 125.837,229.708 125.172 C 228.777 124.506,227.067 123.686,225.908 123.349 C 224.749 123.012,222.630 122.042,221.200 121.192 C 219.770 120.343,217.700 119.436,216.600 119.178 C 215.500 118.919,213.329 118.094,211.776 117.344 C 207.865 115.455,202.571 114.924,194.638 115.627 M208.838 118.494 C 210.289 119.057,212.873 119.901,214.581 120.369 C 216.289 120.838,218.432 121.730,219.343 122.352 C 220.255 122.974,221.990 123.796,223.200 124.180 C 224.410 124.563,226.400 125.479,227.622 126.215 C 228.845 126.951,230.915 127.946,232.222 128.427 C 233.530 128.908,235.167 129.724,235.861 130.241 C 236.554 130.758,238.084 131.556,239.261 132.015 C 240.437 132.474,242.570 133.545,244.000 134.395 C 245.430 135.245,247.410 136.148,248.400 136.403 C 249.390 136.658,251.100 137.477,252.200 138.225 C 253.300 138.972,255.277 139.952,256.594 140.403 C 257.911 140.853,259.659 141.687,260.480 142.255 C 261.300 142.824,263.165 143.722,264.624 144.252 C 266.084 144.782,268.025 145.725,268.939 146.349 C 269.852 146.972,271.680 147.882,273.000 148.372 C 274.320 148.861,275.989 149.709,276.708 150.257 C 277.428 150.805,279.269 151.679,280.800 152.200 C 282.331 152.721,284.188 153.608,284.926 154.171 C 285.665 154.734,287.478 155.634,288.956 156.170 C 290.434 156.706,292.489 157.685,293.522 158.345 C 294.555 159.005,296.413 159.922,297.651 160.383 C 300.467 161.431,304.967 165.155,306.589 167.778 L 307.800 169.737 307.800 200.368 C 307.800 235.182,307.977 233.054,304.767 236.774 C 300.279 241.976,292.473 242.223,287.519 237.319 C 284.197 234.032,284.298 234.724,284.033 213.541 C 283.758 191.536,283.788 191.659,279.256 193.972 C 278.424 194.396,276.496 195.138,274.972 195.620 C 273.447 196.103,270.940 197.180,269.400 198.013 C 267.860 198.847,265.790 199.743,264.800 200.004 C 263.810 200.265,261.917 201.083,260.594 201.821 C 259.271 202.560,257.066 203.513,255.695 203.940 C 254.323 204.366,252.346 205.260,251.301 205.925 C 250.255 206.591,248.320 207.435,247.000 207.802 C 245.680 208.169,243.610 209.066,242.400 209.795 C 241.190 210.525,239.120 211.425,237.800 211.795 C 236.480 212.166,234.410 213.058,233.200 213.779 C 231.990 214.500,229.691 215.481,228.092 215.959 C 226.492 216.437,224.380 217.337,223.398 217.960 C 222.416 218.583,220.755 219.318,219.707 219.594 C 218.658 219.870,216.090 220.877,214.000 221.831 C 206.634 225.194,192.981 225.249,186.625 221.941 C 185.309 221.256,183.090 220.369,181.693 219.969 C 180.297 219.570,178.040 218.621,176.677 217.860 C 175.315 217.099,173.193 216.185,171.962 215.828 C 170.731 215.471,168.896 214.654,167.884 214.013 C 166.872 213.371,164.820 212.469,163.322 212.007 C 161.825 211.546,159.898 210.705,159.039 210.138 C 158.181 209.572,155.937 208.587,154.053 207.950 C 152.170 207.314,149.992 206.373,149.214 205.860 C 148.436 205.346,146.810 204.607,145.600 204.215 C 144.390 203.824,142.140 202.826,140.600 201.996 C 139.060 201.166,136.720 200.182,135.400 199.808 C 134.080 199.435,132.194 198.598,131.208 197.949 C 130.222 197.300,128.422 196.486,127.208 196.141 C 125.994 195.795,123.740 194.828,122.200 193.992 C 120.660 193.155,118.590 192.261,117.600 192.004 C 116.610 191.747,114.519 190.840,112.954 189.988 C 111.389 189.136,109.241 188.221,108.182 187.954 C 93.416 184.236,87.730 172.651,96.640 164.436 C 99.256 162.024,102.621 160.012,104.054 160.004 C 104.414 160.002,105.764 159.303,107.054 158.452 C 108.344 157.600,110.390 156.584,111.600 156.193 C 112.810 155.802,114.538 154.979,115.439 154.364 C 116.341 153.749,118.256 152.774,119.695 152.198 C 121.135 151.621,122.899 150.717,123.617 150.187 C 124.335 149.658,126.031 148.856,127.387 148.404 C 128.742 147.953,130.820 146.960,132.003 146.198 C 133.187 145.436,135.076 144.544,136.203 144.216 C 137.329 143.889,139.041 143.049,140.007 142.349 C 140.972 141.650,142.770 140.772,144.003 140.399 C 145.236 140.026,147.177 139.078,148.318 138.294 C 149.459 137.509,151.339 136.556,152.496 136.176 C 153.653 135.796,155.320 134.974,156.200 134.350 C 157.080 133.726,159.101 132.774,160.692 132.234 C 162.282 131.695,164.172 130.814,164.892 130.277 C 165.611 129.740,167.280 128.905,168.600 128.420 C 169.920 127.936,171.791 127.016,172.758 126.377 C 173.725 125.737,175.515 124.840,176.736 124.384 C 177.957 123.927,179.955 122.945,181.178 122.202 C 182.400 121.460,184.210 120.650,185.200 120.404 C 186.190 120.158,188.620 119.438,190.600 118.804 C 195.661 117.183,195.267 117.237,201.000 117.360 C 205.459 117.455,206.576 117.616,208.838 118.494 M133.128 227.057 C 131.768 228.564,131.600 229.981,131.600 239.971 C 131.600 251.431,131.847 253.206,133.897 256.486 C 135.412 258.909,140.895 264.800,141.635 264.800 C 141.855 264.800,142.882 265.587,143.917 266.549 C 144.953 267.511,146.606 268.706,147.592 269.204 C 148.577 269.702,150.017 270.618,150.792 271.239 C 151.566 271.860,152.945 272.630,153.856 272.951 C 154.767 273.271,156.477 274.162,157.656 274.930 C 158.835 275.698,160.868 276.627,162.172 276.995 C 163.477 277.363,165.727 278.275,167.172 279.022 C 169.034 279.984,170.966 280.572,173.800 281.041 C 176.000 281.406,179.240 282.234,181.000 282.882 C 188.237 285.549,211.773 285.547,219.000 282.881 C 220.760 282.231,224.090 281.390,226.400 281.011 C 229.530 280.498,231.211 279.985,233.000 278.999 C 234.320 278.271,236.459 277.399,237.753 277.062 C 239.047 276.724,241.117 275.825,242.353 275.062 C 243.589 274.300,245.590 273.238,246.800 272.703 C 248.010 272.167,249.259 271.416,249.576 271.032 C 249.893 270.649,251.243 269.784,252.576 269.111 C 254.943 267.916,257.220 266.184,260.550 263.045 C 261.458 262.190,262.614 261.218,263.120 260.886 C 263.627 260.553,264.321 259.723,264.663 259.041 C 265.005 258.358,265.901 256.891,266.654 255.780 C 269.007 252.308,269.849 231.534,267.780 228.000 C 266.438 225.707,260.509 226.231,255.889 229.052 C 254.618 229.828,252.427 230.792,251.020 231.194 C 249.614 231.596,247.276 232.589,245.826 233.400 C 244.375 234.212,242.264 235.119,241.136 235.417 C 240.007 235.715,238.067 236.586,236.824 237.353 C 235.582 238.119,233.673 238.965,232.583 239.232 C 230.422 239.760,228.755 240.514,227.197 241.665 C 226.646 242.073,224.864 242.783,223.239 243.243 C 221.613 243.703,219.184 244.681,217.841 245.416 C 211.660 248.800,188.709 248.783,182.512 245.390 C 181.143 244.641,178.893 243.741,177.512 243.391 C 176.130 243.041,174.010 242.152,172.800 241.416 C 171.590 240.680,169.520 239.775,168.200 239.405 C 166.880 239.034,164.810 238.134,163.600 237.405 C 162.390 236.675,160.320 235.775,159.000 235.405 C 157.680 235.034,155.610 234.134,154.400 233.405 C 153.190 232.675,151.120 231.775,149.800 231.405 C 148.480 231.034,146.410 230.136,145.200 229.407 C 141.103 226.942,134.408 225.638,133.128 227.057 M142.321 230.147 C 143.574 230.906,145.680 231.829,147.000 232.198 C 148.320 232.567,150.390 233.466,151.600 234.195 C 152.810 234.925,154.880 235.825,156.200 236.195 C 157.520 236.566,159.590 237.466,160.800 238.195 C 162.010 238.925,164.080 239.825,165.400 240.195 C 166.720 240.566,168.790 241.466,170.000 242.195 C 171.210 242.925,173.280 243.828,174.600 244.202 C 175.920 244.576,178.128 245.504,179.507 246.265 C 188.478 251.211,211.976 251.206,220.893 246.255 C 222.272 245.490,224.469 244.557,225.776 244.181 C 227.083 243.806,229.029 242.959,230.101 242.300 C 231.173 241.640,233.134 240.763,234.459 240.351 C 235.784 239.938,237.978 238.986,239.334 238.235 C 240.690 237.484,242.742 236.594,243.892 236.258 C 245.043 235.922,247.113 235.025,248.492 234.265 C 249.872 233.505,252.080 232.576,253.400 232.202 C 254.720 231.828,256.866 230.865,258.170 230.061 C 260.969 228.335,264.558 227.987,265.886 229.313 C 266.730 230.157,267.155 244.923,266.463 249.368 C 266.030 252.150,263.885 257.572,262.783 258.671 C 259.271 262.174,253.761 266.487,250.975 267.914 C 250.109 268.357,248.709 269.271,247.864 269.945 C 247.020 270.618,245.330 271.543,244.108 272.000 C 242.887 272.457,241.148 273.355,240.244 273.997 C 239.340 274.638,237.268 275.527,235.639 275.973 C 234.010 276.418,231.940 277.169,231.039 277.641 C 228.462 278.990,226.664 279.526,223.106 280.006 C 221.288 280.251,218.090 280.881,216.000 281.405 C 207.448 283.552,192.924 283.631,184.913 281.575 C 183.201 281.135,179.673 280.433,177.073 280.014 C 173.637 279.461,171.707 278.920,170.003 278.033 C 168.714 277.363,166.262 276.431,164.555 275.962 C 162.832 275.489,160.596 274.522,159.529 273.789 C 158.472 273.062,156.689 272.162,155.567 271.789 C 154.445 271.416,152.958 270.616,152.263 270.011 C 151.569 269.406,150.370 268.594,149.600 268.207 C 142.189 264.478,136.094 257.855,134.198 251.469 C 133.466 249.004,133.324 231.263,134.026 229.951 C 135.098 227.949,138.836 228.037,142.321 230.147 " stroke="none" fill="#ffffff" fill-rule="evenodd"></path><path id="path3" d="M34.400 0.395 C 33.630 0.568,32.327 0.828,31.504 0.972 C 30.610 1.129,29.288 1.858,28.217 2.785 C 27.119 3.735,25.558 4.588,24.185 4.987 C 22.314 5.531,21.857 5.849,21.410 6.919 C 21.081 7.706,20.281 8.509,19.337 9.000 C 18.440 9.467,17.514 10.373,17.113 11.175 C 16.658 12.088,15.986 12.694,15.116 12.975 C 14.231 13.262,13.545 13.891,13.003 14.914 C 12.561 15.746,11.604 16.785,10.876 17.222 C 10.148 17.660,9.291 18.642,8.972 19.405 C 8.583 20.335,7.939 20.982,7.016 21.368 C 5.836 21.861,5.546 22.264,4.987 24.184 C 4.586 25.566,3.735 27.120,2.768 28.237 C 1.906 29.233,1.200 30.112,1.200 30.189 C 1.200 30.266,0.930 31.740,0.600 33.465 C -0.150 37.385,-0.327 362.302,0.418 366.080 C 0.649 367.246,0.916 368.580,1.012 369.043 C 1.108 369.507,2.000 370.934,2.993 372.213 C 3.987 373.493,4.806 374.913,4.814 375.370 C 4.837 376.700,5.794 378.073,7.209 378.804 C 8.060 379.245,8.676 379.957,8.961 380.831 C 9.256 381.735,9.900 382.458,10.921 383.030 C 11.758 383.498,12.748 384.493,13.121 385.241 C 13.496 385.992,14.412 386.906,15.169 387.283 C 15.959 387.678,16.760 388.494,17.062 389.213 C 17.423 390.071,18.077 390.652,19.165 391.079 C 20.237 391.500,20.904 392.085,21.242 392.900 C 21.708 394.027,24.153 395.568,25.512 395.591 C 25.793 395.596,26.916 396.305,28.006 397.167 C 29.096 398.029,30.666 398.974,31.494 399.267 C 33.774 400.074,366.668 400.059,368.952 399.252 C 369.806 398.950,371.186 398.088,372.019 397.335 C 372.852 396.582,374.488 395.659,375.653 395.283 C 377.229 394.775,378.014 394.241,378.713 393.200 C 379.229 392.430,380.219 391.530,380.912 391.200 C 381.605 390.870,382.594 389.970,383.111 389.200 C 383.627 388.430,384.627 387.502,385.333 387.138 C 386.045 386.770,386.923 385.832,387.306 385.029 C 387.685 384.233,388.409 383.425,388.914 383.233 C 389.955 382.837,390.814 381.913,391.400 380.560 C 391.620 380.052,392.430 379.217,393.200 378.704 C 394.252 378.004,394.773 377.235,395.298 375.608 C 395.682 374.417,396.528 372.893,397.178 372.221 C 400.071 369.231,399.788 386.887,399.906 202.200 C 400.022 19.300,400.213 30.722,396.986 27.495 C 396.470 26.979,395.660 25.520,395.186 24.254 C 394.507 22.439,394.044 21.817,393.001 21.320 C 392.107 20.894,391.480 20.186,391.068 19.138 C 390.652 18.077,390.065 17.420,389.213 17.062 C 388.494 16.760,387.678 15.959,387.283 15.169 C 386.906 14.412,385.992 13.496,385.241 13.121 C 384.493 12.748,383.498 11.758,383.030 10.921 C 382.458 9.900,381.735 9.256,380.831 8.961 C 379.957 8.676,379.245 8.060,378.804 7.209 C 378.066 5.782,376.698 4.837,375.338 4.814 C 374.864 4.806,373.712 4.162,372.779 3.383 C 370.452 1.438,369.828 1.151,366.606 0.536 C 363.435 -0.069,37.080 -0.207,34.400 0.395 M213.400 31.586 C 218.269 31.878,220.134 32.174,223.294 33.156 C 225.963 33.985,228.731 34.499,232.094 34.788 C 238.724 35.358,239.346 35.488,242.800 37.020 C 244.606 37.821,247.275 38.587,249.508 38.945 C 252.267 39.388,253.860 39.900,255.737 40.950 C 257.141 41.735,259.533 42.626,261.136 42.960 C 262.913 43.330,264.892 44.098,266.307 44.967 C 267.568 45.740,269.731 46.722,271.112 47.149 C 272.494 47.575,274.260 48.409,275.038 49.001 C 275.815 49.594,277.552 50.511,278.898 51.039 C 280.245 51.566,281.718 52.339,282.173 52.756 C 282.628 53.173,284.260 54.144,285.800 54.913 C 287.340 55.682,288.960 56.713,289.400 57.203 C 289.840 57.693,291.169 58.523,292.353 59.048 C 293.537 59.573,295.192 60.622,296.029 61.379 C 296.867 62.136,298.058 63.020,298.676 63.343 C 299.294 63.667,300.420 64.577,301.178 65.366 C 301.937 66.155,302.757 66.800,303.002 66.800 C 304.463 66.800,318.157 79.422,325.000 87.075 C 331.347 94.174,332.642 95.722,333.306 97.000 C 333.648 97.660,334.501 98.740,335.201 99.400 C 335.901 100.060,336.798 101.230,337.194 102.000 C 337.591 102.770,338.314 103.760,338.802 104.200 C 339.290 104.640,340.379 106.372,341.223 108.049 C 342.067 109.726,343.006 111.193,343.310 111.310 C 343.613 111.426,344.448 112.754,345.164 114.261 C 345.880 115.767,346.822 117.383,347.257 117.851 C 347.692 118.319,348.571 119.989,349.211 121.561 C 349.851 123.133,350.832 125.020,351.392 125.754 C 351.952 126.488,352.697 128.056,353.048 129.238 C 353.399 130.420,354.367 132.515,355.198 133.893 C 356.201 135.556,356.872 137.307,357.193 139.099 C 357.486 140.732,358.192 142.670,358.978 144.000 C 360.638 146.810,360.664 146.891,361.395 151.433 C 361.733 153.533,362.385 155.987,362.844 156.886 C 364.385 159.907,364.793 161.658,365.379 167.773 C 365.773 171.890,366.292 174.871,366.984 176.989 C 369.676 185.237,369.695 215.295,367.012 223.169 C 366.331 225.170,365.805 228.091,365.400 232.127 C 364.724 238.869,364.355 240.536,362.937 243.247 C 362.365 244.342,361.696 246.700,361.352 248.834 C 360.714 252.799,360.081 254.662,358.834 256.248 C 358.401 256.798,357.844 258.273,357.597 259.524 C 356.938 262.860,356.391 264.424,355.314 266.056 C 354.785 266.857,353.850 268.858,353.236 270.504 C 352.622 272.150,351.642 274.122,351.059 274.887 C 350.476 275.651,349.645 277.307,349.212 278.566 C 348.778 279.826,347.941 281.429,347.352 282.128 C 346.762 282.828,345.791 284.480,345.194 285.800 C 344.598 287.120,343.699 288.560,343.197 289.000 C 342.695 289.440,341.881 290.703,341.389 291.807 C 340.896 292.910,339.831 294.606,339.022 295.574 C 338.213 296.542,337.308 297.799,337.011 298.367 C 336.714 298.935,335.899 299.940,335.200 300.600 C 334.501 301.260,333.648 302.340,333.305 303.000 C 332.569 304.415,331.233 306.005,323.957 314.125 C 318.317 320.419,316.435 322.266,310.835 327.000 C 309.013 328.540,306.775 330.451,305.861 331.246 C 304.948 332.042,303.617 332.991,302.904 333.355 C 302.191 333.719,301.308 334.473,300.943 335.031 C 300.577 335.589,299.618 336.383,298.811 336.794 C 298.004 337.206,296.547 338.213,295.572 339.032 C 294.597 339.851,292.900 340.922,291.800 341.414 C 290.700 341.905,289.440 342.715,289.000 343.214 C 288.560 343.713,287.100 344.624,285.756 345.239 C 284.412 345.854,282.780 346.805,282.130 347.352 C 281.479 347.900,279.975 348.717,278.787 349.168 C 277.598 349.620,275.868 350.533,274.942 351.199 C 274.016 351.864,272.120 352.762,270.729 353.194 C 269.338 353.625,267.532 354.436,266.715 354.994 C 264.840 356.275,263.698 356.706,260.266 357.428 C 258.752 357.747,257.003 358.370,256.380 358.814 C 254.549 360.118,252.757 360.721,248.834 361.352 C 246.700 361.696,244.342 362.365,243.247 362.937 C 240.536 364.355,238.869 364.724,232.127 365.400 C 228.074 365.807,225.178 366.329,223.169 367.016 C 215.331 369.695,185.150 369.683,177.000 366.997 C 174.794 366.270,171.939 365.764,167.806 365.369 C 160.993 364.716,161.229 364.769,157.200 363.001 C 155.550 362.277,153.120 361.563,151.800 361.415 C 148.223 361.015,146.438 360.462,144.000 359.003 C 142.708 358.229,140.729 357.487,139.205 357.204 C 136.583 356.717,135.025 356.079,133.200 354.745 C 132.650 354.343,131.137 353.651,129.838 353.207 C 128.539 352.763,126.873 351.940,126.136 351.378 C 125.398 350.816,123.581 349.916,122.098 349.379 C 120.614 348.842,118.950 348.042,118.400 347.602 C 117.850 347.161,116.373 346.262,115.117 345.604 C 113.862 344.945,112.242 343.893,111.517 343.266 C 110.793 342.640,109.120 341.639,107.800 341.042 C 106.480 340.445,104.860 339.448,104.200 338.826 C 103.540 338.204,102.243 337.226,101.317 336.653 C 100.392 336.080,99.453 335.273,99.231 334.858 C 99.009 334.443,98.184 333.799,97.397 333.425 C 96.008 332.766,94.384 331.466,89.400 327.026 C 80.610 319.194,80.313 318.897,73.138 310.764 C 68.194 305.159,67.200 303.958,67.200 303.591 C 67.200 303.381,66.300 302.215,65.200 301.000 C 64.100 299.785,63.200 298.624,63.200 298.420 C 63.200 298.216,62.454 297.187,61.543 296.134 C 60.631 295.080,59.396 293.134,58.797 291.809 C 58.199 290.484,57.299 289.040,56.797 288.600 C 56.295 288.160,55.478 286.890,54.981 285.777 C 54.485 284.665,53.600 283.186,53.015 282.490 C 52.429 281.795,51.511 280.103,50.973 278.731 C 50.435 277.359,49.522 275.554,48.944 274.720 C 48.367 273.886,47.554 272.168,47.138 270.902 C 46.722 269.636,45.758 267.586,44.995 266.347 C 44.144 264.964,43.372 262.971,42.997 261.186 C 42.661 259.587,42.164 257.879,41.893 257.392 C 41.622 256.904,40.976 255.731,40.458 254.786 C 39.915 253.796,39.269 251.526,38.933 249.433 C 38.575 247.202,37.824 244.633,36.987 242.777 C 35.942 240.458,35.526 238.828,35.201 235.777 C 34.398 228.248,33.981 225.791,32.964 222.600 C 30.422 214.629,30.553 185.864,33.172 176.902 C 33.954 174.224,34.517 171.085,34.797 167.840 C 35.275 162.279,36.037 158.882,37.242 156.931 C 37.714 156.169,38.386 153.722,38.843 151.108 C 39.460 147.580,39.921 146.122,40.964 144.400 C 41.742 143.116,42.571 140.948,42.955 139.193 C 43.337 137.448,44.173 135.256,44.949 133.969 C 45.683 132.750,46.675 130.593,47.153 129.176 C 47.632 127.759,48.551 125.902,49.196 125.049 C 49.841 124.196,50.672 122.576,51.042 121.449 C 51.412 120.322,52.232 118.740,52.865 117.933 C 53.497 117.126,54.440 115.506,54.961 114.333 C 55.481 113.160,56.315 111.840,56.814 111.400 C 57.313 110.960,58.215 109.520,58.820 108.199 C 59.424 106.878,60.305 105.448,60.778 105.020 C 61.252 104.591,62.249 103.242,62.995 102.021 C 63.740 100.799,64.716 99.577,65.163 99.304 C 65.609 99.032,66.277 98.222,66.647 97.504 C 67.386 96.072,68.792 94.361,74.200 88.314 C 76.180 86.100,78.433 83.535,79.206 82.615 C 79.979 81.694,81.329 80.326,82.206 79.574 C 83.629 78.353,89.960 72.731,94.161 68.956 C 95.020 68.185,96.409 67.204,97.248 66.776 C 98.087 66.348,98.957 65.654,99.182 65.234 C 99.406 64.815,100.267 64.062,101.095 63.561 C 101.923 63.060,103.590 61.895,104.800 60.971 C 106.010 60.048,107.649 59.086,108.441 58.834 C 109.234 58.583,110.314 57.914,110.841 57.348 C 111.369 56.783,112.880 55.775,114.200 55.108 C 115.520 54.442,117.230 53.406,118.000 52.806 C 118.770 52.206,120.390 51.402,121.600 51.019 C 122.810 50.636,124.700 49.722,125.800 48.987 C 126.900 48.252,128.700 47.349,129.800 46.981 C 130.900 46.613,132.790 45.707,134.000 44.969 C 135.306 44.171,137.528 43.320,139.469 42.871 C 141.491 42.404,143.463 41.636,144.638 40.858 C 145.682 40.166,146.641 39.598,146.769 39.595 C 148.610 39.552,155.939 37.856,156.932 37.242 C 158.888 36.033,162.351 35.258,167.762 34.818 C 171.034 34.552,174.024 34.013,177.000 33.153 C 183.256 31.344,198.454 30.690,213.400 31.586 M196.767 119.361 C 196.675 119.450,194.620 119.907,192.200 120.376 C 185.898 121.597,184.908 121.913,182.780 123.376 C 181.733 124.097,180.075 124.888,179.096 125.134 C 178.116 125.381,176.434 126.188,175.358 126.927 C 174.281 127.667,172.453 128.586,171.296 128.969 C 170.139 129.353,168.339 130.253,167.296 130.969 C 166.253 131.685,164.192 132.673,162.715 133.163 C 161.239 133.654,159.349 134.523,158.515 135.096 C 157.682 135.668,155.672 136.636,154.048 137.247 C 152.425 137.858,150.693 138.737,150.200 139.200 C 149.707 139.663,147.951 140.547,146.297 141.164 C 144.643 141.781,142.505 142.835,141.545 143.508 C 140.585 144.180,138.799 145.011,137.574 145.354 C 136.350 145.698,134.570 146.543,133.619 147.232 C 132.668 147.921,130.643 148.909,129.121 149.427 C 127.599 149.945,125.830 150.809,125.190 151.347 C 124.550 151.885,122.861 152.714,121.437 153.188 C 120.013 153.661,118.213 154.554,117.437 155.171 C 115.902 156.391,114.720 156.928,112.095 157.598 C 111.157 157.838,109.764 158.583,108.999 159.254 C 108.190 159.965,106.479 160.814,104.904 161.285 C 103.369 161.746,101.617 162.607,100.851 163.279 C 100.109 163.930,99.084 164.652,98.573 164.885 C 93.972 166.982,92.231 174.569,95.503 178.268 C 96.106 178.950,97.070 180.118,97.645 180.864 C 98.405 181.850,99.332 182.421,101.045 182.959 C 102.340 183.367,104.138 184.228,105.039 184.874 C 105.941 185.520,107.987 186.385,109.587 186.797 C 111.186 187.208,113.533 188.186,114.802 188.969 C 116.072 189.752,118.255 190.685,119.655 191.042 C 121.109 191.412,122.990 192.267,124.043 193.037 C 125.118 193.823,126.783 194.574,128.043 194.841 C 130.445 195.349,132.199 196.129,133.400 197.221 C 133.840 197.622,135.640 198.338,137.400 198.813 C 139.182 199.294,141.487 200.268,142.600 201.011 C 143.700 201.744,145.881 202.717,147.446 203.173 C 149.011 203.629,150.942 204.518,151.737 205.150 C 152.584 205.823,154.304 206.578,155.891 206.975 C 157.381 207.347,159.500 208.257,160.600 208.996 C 161.700 209.736,163.770 210.630,165.200 210.983 C 166.630 211.335,168.520 212.136,169.400 212.763 C 170.914 213.841,174.225 215.200,175.339 215.200 C 175.620 215.200,177.045 215.920,178.505 216.801 C 180.064 217.741,182.282 218.657,183.880 219.020 C 185.376 219.360,187.478 220.177,188.551 220.834 C 191.380 222.569,193.575 222.896,201.329 222.739 L 208.202 222.600 211.601 220.920 C 213.470 219.996,215.720 219.117,216.600 218.967 C 218.353 218.667,219.649 218.086,221.764 216.650 C 222.526 216.133,224.376 215.407,225.875 215.036 C 227.374 214.666,229.600 213.751,230.823 213.004 C 232.045 212.257,234.205 211.330,235.623 210.943 C 237.040 210.556,239.032 209.676,240.048 208.986 C 241.065 208.297,242.775 207.510,243.848 207.238 C 245.926 206.712,248.178 205.705,250.304 204.352 C 251.021 203.896,252.641 203.253,253.904 202.923 C 255.167 202.594,257.193 201.711,258.407 200.962 C 259.621 200.214,261.841 199.261,263.339 198.845 C 264.838 198.430,266.824 197.544,267.754 196.876 C 268.683 196.208,270.604 195.362,272.021 194.995 C 273.438 194.627,275.620 193.696,276.869 192.925 C 279.773 191.133,282.662 190.887,284.088 192.310 L 285.000 193.221 285.233 212.310 C 285.494 233.818,285.321 232.619,288.715 236.338 C 291.691 239.598,299.558 240.259,302.086 237.460 C 304.704 234.562,306.008 232.488,306.401 230.597 C 307.182 226.831,306.752 171.277,305.929 169.777 C 304.186 166.596,299.360 162.677,295.339 161.177 C 293.658 160.550,291.814 159.596,291.241 159.057 C 290.669 158.518,288.990 157.719,287.511 157.281 C 286.032 156.843,284.142 155.947,283.311 155.290 C 282.480 154.633,280.603 153.737,279.140 153.298 C 277.677 152.860,275.787 151.958,274.940 151.294 C 274.093 150.631,272.680 149.863,271.800 149.590 C 269.665 148.925,267.462 147.798,266.843 147.052 C 266.566 146.719,264.907 145.969,263.156 145.385 C 261.405 144.802,259.449 143.885,258.810 143.347 C 258.170 142.809,256.401 141.945,254.879 141.427 C 253.357 140.909,251.332 139.921,250.381 139.232 C 249.430 138.543,247.650 137.698,246.426 137.355 C 245.201 137.012,243.290 136.120,242.179 135.371 C 241.067 134.623,239.128 133.657,237.870 133.224 C 236.612 132.791,234.821 131.893,233.891 131.228 C 232.961 130.562,231.161 129.662,229.891 129.228 C 228.621 128.793,226.821 127.899,225.891 127.242 C 224.961 126.585,222.940 125.650,221.400 125.165 C 219.860 124.680,217.842 123.744,216.915 123.085 C 214.237 121.180,197.989 118.177,196.767 119.361 M136.595 230.662 C 135.475 231.782,135.897 251.290,137.113 254.600 C 138.107 257.304,140.493 259.767,145.412 263.164 C 146.958 264.231,148.474 265.407,148.780 265.776 C 149.086 266.144,149.934 266.696,150.664 267.001 C 151.394 267.306,152.669 268.095,153.496 268.755 C 154.323 269.414,156.231 270.398,157.735 270.940 C 159.239 271.482,160.859 272.280,161.335 272.713 C 162.654 273.913,163.689 274.346,166.814 275.003 C 168.391 275.335,170.794 276.228,172.154 276.989 C 174.191 278.128,175.297 278.446,178.414 278.787 C 180.496 279.015,185.890 279.667,190.400 280.237 C 199.680 281.409,200.751 281.391,213.200 279.863 C 225.085 278.403,226.314 278.168,227.959 277.034 C 228.752 276.488,231.163 275.585,233.318 275.027 C 235.596 274.438,237.778 273.600,238.532 273.025 C 239.245 272.481,241.152 271.497,242.771 270.839 C 244.389 270.180,246.183 269.199,246.757 268.658 C 247.330 268.117,248.443 267.410,249.229 267.087 C 250.015 266.764,251.275 265.967,252.029 265.316 C 252.783 264.665,254.525 263.376,255.900 262.451 C 257.275 261.527,258.400 260.606,258.400 260.404 C 258.400 260.203,259.188 259.496,260.151 258.834 C 263.376 256.615,264.403 252.123,264.394 240.265 C 264.386 229.548,263.900 228.619,259.719 231.320 C 258.574 232.059,256.660 232.883,255.465 233.151 C 254.270 233.418,252.263 234.256,251.006 235.013 C 249.748 235.771,247.433 236.765,245.860 237.224 C 244.287 237.683,242.262 238.577,241.360 239.211 C 240.457 239.845,238.408 240.728,236.805 241.172 C 235.203 241.616,233.511 242.253,233.046 242.587 C 232.581 242.921,231.805 243.481,231.322 243.831 C 230.839 244.182,229.196 244.790,227.670 245.182 C 226.144 245.574,224.055 246.474,223.027 247.182 C 221.680 248.108,220.241 248.640,217.879 249.083 C 216.075 249.421,213.610 250.052,212.400 250.484 C 205.460 252.965,195.445 253.152,189.200 250.917 C 187.330 250.248,184.320 249.422,182.512 249.082 C 180.195 248.647,178.541 248.045,176.912 247.044 C 175.640 246.263,173.653 245.423,172.495 245.178 C 171.338 244.932,169.502 244.121,168.416 243.374 C 167.330 242.627,165.156 241.671,163.584 241.249 C 162.012 240.828,159.968 239.938,159.041 239.272 C 158.114 238.607,156.196 237.766,154.778 237.404 C 153.360 237.042,151.030 236.051,149.600 235.201 C 148.170 234.351,145.961 233.389,144.690 233.063 C 143.420 232.738,141.514 231.915,140.455 231.235 C 138.266 229.831,137.535 229.722,136.595 230.662 " stroke="none" fill="#349bdc" fill-rule="evenodd"></path></g></svg>